<?xml version="1.0" encoding="UTF-8"?>
<svg version="1.1" xmlns="http://www.w3.org/2000/svg" width="431" height="431">
<path d="M0 0 C142.23 0 284.46 0 431 0 C431 142.23 431 284.46 431 431 C288.77 431 146.54 431 0 431 C0 288.77 0 146.54 0 0 Z " fill="#FEFEFE" transform="translate(0,0)"/>
<path d="M0 0 C64.02 0 128.04 0 194 0 C194 8.58 194 17.16 194 26 C165.29 26 136.58 26 107 26 C107 26.66 107 27.32 107 28 C107.66 28 108.32 28 109 28 C109 28.66 109 29.32 109 30 C109.66 30 110.32 30 111 30 C111 30.99 111 31.98 111 33 C111.99 33 112.98 33 114 33 C114 33.66 114 34.32 114 35 C114.66 35 115.32 35 116 35 C116 36.65 116 38.3 116 40 C116.99 40 117.98 40 119 40 C119 40.66 119 41.32 119 42 C119.66 42 120.32 42 121 42 C121 42.99 121 43.98 121 45 C121.66 45 122.32 45 123 45 C123 46.32 123 47.64 123 49 C123.99 49 124.98 49 126 49 C126 50.65 126 52.3 126 54 C126.66 54 127.32 54 128 54 C128 55.65 128 57.3 128 59 C128.66 59 129.32 59 130 59 C130 60.65 130 62.3 130 64 C130.99 64 131.98 64 133 64 C133 65.32 133 66.64 133 68 C133.66 68 134.32 68 135 68 C135 71.3 135 74.6 135 78 C135.66 78 136.32 78 137 78 C137 80.31 137 82.62 137 85 C137.66 85 138.32 85 139 85 C140.60725635 88.21451269 140.05748185 91.43612536 140 95 C140.66 95 141.32 95 142 95 C142.04898438 96.03640625 142.09796875 97.0728125 142.1484375 98.140625 C142.22349597 99.51044208 142.29904247 100.88023248 142.375 102.25 C142.42140625 103.27287109 142.42140625 103.27287109 142.46875 104.31640625 C142.64452859 108.22009727 142.64452859 108.22009727 144.01147461 111.81738281 C145.36897931 114.81468883 145.24200928 117.31171246 145.23046875 120.59375 C145.22853516 121.87121094 145.22660156 123.14867187 145.22460938 124.46484375 C145.21840576 125.12726074 145.21220215 125.78967773 145.20581055 126.47216797 C145.18756057 128.49329254 145.18530105 130.51395786 145.18554688 132.53515625 C145.13660623 143.31297411 145.13660623 143.31297411 144 147 C143.34 147 142.68 147 142 147 C142.01160156 147.84304687 142.02320313 148.68609375 142.03515625 149.5546875 C142.04417969 150.65039062 142.05320312 151.74609375 142.0625 152.875 C142.07410156 153.96554688 142.08570313 155.05609375 142.09765625 156.1796875 C142 159 142 159 141 161 C140.77141886 163.0374763 140.58975722 165.08040303 140.4375 167.125 C140.35371094 168.22070312 140.26992188 169.31640625 140.18359375 170.4453125 C140.12300781 171.28835938 140.06242188 172.13140625 140 173 C139.01 173 138.02 173 137 173 C137 175.31 137 177.62 137 180 C136.34 180 135.68 180 135 180 C135 182.31 135 184.62 135 187 C134.34 187 133.68 187 133 187 C133 189.31 133 191.62 133 194 C132.01 194 131.02 194 130 194 C130 195.65 130 197.3 130 199 C129.34 199 128.68 199 128 199 C128 200.65 128 202.3 128 204 C127.34 204 126.68 204 126 204 C125.67 205.32 125.34 206.64 125 208 C124.34 208 123.68 208 123 208 C123 208.99 123 209.98 123 211 C122.34 211 121.68 211 121 211 C121 212.65 121 214.3 121 216 C120.34 216 119.68 216 119 216 C119 216.66 119 217.32 119 218 C118.01 218 117.02 218 116 218 C116 218.66 116 219.32 116 220 C115.34 220 114.68 220 114 220 C114 221.65 114 223.3 114 225 C113.01 225 112.02 225 111 225 C111 225.66 111 226.32 111 227 C110.34 227 109.68 227 109 227 C109 227.99 109 228.98 109 230 C108.34 230 107.68 230 107 230 C107 230.66 107 231.32 107 232 C106.01 232 105.02 232 104 232 C104 232.99 104 233.98 104 235 C103.34 235 102.68 235 102 235 C102 235.66 102 236.32 102 237 C101.34 237 100.68 237 100 237 C100 237.66 100 238.32 100 239 C98.35 239 96.7 239 95 239 C95 239.99 95 240.98 95 242 C94.01 242 93.02 242 92 242 C92 242.66 92 243.32 92 244 C91.34 244 90.68 244 90 244 C90 244.66 90 245.32 90 246 C88.35 246 86.7 246 85 246 C85 246.99 85 247.98 85 249 C84.34 249 83.68 249 83 249 C83 249.66 83 250.32 83 251 C80.69 251 78.38 251 76 251 C76 251.99 76 252.98 76 254 C74.35 254 72.7 254 71 254 C71 254.66 71 255.32 71 256 C69.35 256 67.7 256 66 256 C66 256.66 66 257.32 66 258 C63.69 258 61.38 258 59 258 C59 258.99 59 259.98 59 261 C55.37 261 51.74 261 48 261 C48 261.66 48 262.32 48 263 C45.94921875 263.22786458 43.8984375 263.45572917 41.84765625 263.68359375 C39.98859771 263.81886614 39.98859771 263.81886614 39 265 C36.3337397 265.08855161 33.69352886 265.11524673 31.02734375 265.09765625 C30.22970108 265.0962413 29.43205841 265.09482635 28.61024475 265.09336853 C26.05262565 265.08775316 23.49509282 265.07519812 20.9375 265.0625 C19.20768355 265.05748698 17.47786574 265.05292373 15.74804688 265.04882812 C11.49866447 265.03777875 7.24934688 265.02050386 3 265 C3 264.34 3 263.68 3 263 C-0.96 263 -4.92 263 -9 263 C-9 262.34 -9 261.68 -9 261 C-12.96 261 -16.92 261 -21 261 C-21 260.01 -21 259.02 -21 258 C-23.31 258 -25.62 258 -28 258 C-28 257.34 -28 256.68 -28 256 C-29.65 256 -31.3 256 -33 256 C-33 255.34 -33 254.68 -33 254 C-34.65 254 -36.3 254 -38 254 C-38 253.01 -38 252.02 -38 251 C-39.32 251 -40.64 251 -42 251 C-42 250.34 -42 249.68 -42 249 C-43.65 249 -45.3 249 -47 249 C-47 248.01 -47 247.02 -47 246 C-48.65 246 -50.3 246 -52 246 C-52 245.34 -52 244.68 -52 244 C-52.66 244 -53.32 244 -54 244 C-54 243.34 -54 242.68 -54 242 C-54.99 242 -55.98 242 -57 242 C-57 241.01 -57 240.02 -57 239 C-57.66 239 -58.32 239 -59 239 C-59 238.34 -59 237.68 -59 237 C-60.65 237 -62.3 237 -64 237 C-64 236.34 -64 235.68 -64 235 C-64.66 235 -65.32 235 -66 235 C-66 234.01 -66 233.02 -66 232 C-66.66 232 -67.32 232 -68 232 C-68 231.34 -68 230.68 -68 230 C-68.99 230 -69.98 230 -71 230 C-71 229.01 -71 228.02 -71 227 C-71.66 227 -72.32 227 -73 227 C-73 225.68 -73 224.36 -73 223 C-73.99 223 -74.98 223 -76 223 C-76 222.01 -76 221.02 -76 220 C-76.66 220 -77.32 220 -78 220 C-78 219.34 -78 218.68 -78 218 C-78.66 218 -79.32 218 -80 218 C-80 216.35 -80 214.7 -80 213 C-80.99 213 -81.98 213 -83 213 C-83 212.34 -83 211.68 -83 211 C-83.66 211 -84.32 211 -85 211 C-85 209.35 -85 207.7 -85 206 C-85.66 206 -86.32 206 -87 206 C-87 204.35 -87 202.7 -87 201 C-87.99 201 -88.98 201 -90 201 C-90 199.68 -90 198.36 -90 197 C-90.66 197 -91.32 197 -92 197 C-92 195.35 -92 193.7 -92 192 C-92.99 192 -93.98 192 -95 192 C-95 189.69 -95 187.38 -95 185 C-95.66 185 -96.32 185 -97 185 C-97 182.69 -97 180.38 -97 178 C-97.66 178 -98.32 178 -99 178 C-99 174.7 -99 171.4 -99 168 C-99.99 168 -100.98 168 -102 168 C-102 163.05 -102 158.1 -102 153 C-102.66 153 -103.32 153 -104 153 C-104.05108968 145.95657481 -104.08589578 138.91319815 -104.10986328 131.86962891 C-104.11986466 129.47800918 -104.13347009 127.0864015 -104.15087891 124.69482422 C-104.17538669 121.23922738 -104.18654208 117.78379349 -104.1953125 114.328125 C-104.20563507 113.27449768 -104.21595764 112.22087036 -104.22659302 111.13531494 C-104.2276628 103.91086859 -103.39242738 97.08637091 -102 90 C-101.34 90 -100.68 90 -100 90 C-99.67 86.7 -99.34 83.4 -99 80 C-98.34 80 -97.68 80 -97 80 C-97 77.69 -97 75.38 -97 73 C-96.34 73 -95.68 73 -95 73 C-95 70.69 -95 68.38 -95 66 C-94.01 66 -93.02 66 -92 66 C-92 64.35 -92 62.7 -92 61 C-91.34 61 -90.68 61 -90 61 C-90 59.68 -90 58.36 -90 57 C-89.01 57 -88.02 57 -87 57 C-87 55.35 -87 53.7 -87 52 C-86.34 52 -85.68 52 -85 52 C-85 50.35 -85 48.7 -85 47 C-84.34 47 -83.68 47 -83 47 C-83 45.35 -83 43.7 -83 42 C-82.01 42 -81.02 42 -80 42 C-80 41.34 -80 40.68 -80 40 C-79.34 40 -78.68 40 -78 40 C-78 39.34 -78 38.68 -78 38 C-77.34 38 -76.68 38 -76 38 C-76 36.35 -76 34.7 -76 33 C-75.01 33 -74.02 33 -73 33 C-73 32.01 -73 31.02 -73 30 C-72.34 30 -71.68 30 -71 30 C-71 29.34 -71 28.68 -71 28 C-70.01 28 -69.02 28 -68 28 C-68 27.34 -68 26.68 -68 26 C-67.34 26 -66.68 26 -66 26 C-66 25.01 -66 24.02 -66 23 C-65.34 23 -64.68 23 -64 23 C-64 22.34 -64 21.68 -64 21 C-62.35 21 -60.7 21 -59 21 C-59 20.34 -59 19.68 -59 19 C-58.34 19 -57.68 19 -57 19 C-57 18.01 -57 17.02 -57 16 C-55.35 16 -53.7 16 -52 16 C-52 15.34 -52 14.68 -52 14 C-50.35 14 -48.7 14 -47 14 C-47 13.34 -47 12.68 -47 12 C-45.35 12 -43.7 12 -42 12 C-42 11.01 -42 10.02 -42 9 C-39.69 9 -37.38 9 -35 9 C-35 8.34 -35 7.68 -35 7 C-32.69 7 -30.38 7 -28 7 C-28 6.01 -28 5.02 -28 4 C-25.03 4 -22.06 4 -19 4 C-19 3.34 -19 2.68 -19 2 C-12.73 2 -6.46 2 0 2 C0 1.34 0 0.68 0 0 Z " fill="#CB3F34" transform="translate(187,94)"/>
<path d="M0 0 C11.55 0 23.1 0 35 0 C35 0.33 35 0.66 35 1 C37.31 1.33 39.62 1.66 42 2 C42 2.99 42 3.98 42 5 C43.65 5 45.3 5 47 5 C47 5.66 47 6.32 47 7 C48.65 7 50.3 7 52 7 C52 7.66 52 8.32 52 9 C53.32 9 54.64 9 56 9 C56 9.99 56 10.98 56 12 C56.99 12 57.98 12 59 12 C59 12.66 59 13.32 59 14 C59.66 14 60.32 14 61 14 C61 14.99 61 15.98 61 17 C61.66 17 62.32 17 63 17 C63 17.66 63 18.32 63 19 C63.99 19 64.98 19 66 19 C66 19.66 66 20.32 66 21 C66.66 21 67.32 21 68 21 C68 21.99 68 22.98 68 24 C68.99 24 69.98 24 71 24 C71 24.66 71 25.32 71 26 C71.66 26 72.32 26 73 26 C73 27.65 73 29.3 73 31 C73.66 31 74.32 31 75 31 C75 32.65 75 34.3 75 36 C75.99 36 76.98 36 78 36 C78 37.32 78 38.64 78 40 C78.66 40 79.32 40 80 40 C80.99 48.415 80.99 48.415 82 57 C82.99 57 83.98 57 85 57 C85 59.97 85 62.94 85 66 C85.66 66 86.32 66 87 66 C87.06058594 66.99902344 87.12117187 67.99804688 87.18359375 69.02734375 C87.26738281 70.31769531 87.35117187 71.60804688 87.4375 72.9375 C87.51871094 74.22527344 87.59992188 75.51304687 87.68359375 76.83984375 C87.64919188 79.86023957 87.64919188 79.86023957 89 81 C89.09370624 82.77991924 89.11744271 84.56356739 89.11352539 86.34594727 C89.11344986 87.4870546 89.11337433 88.62816193 89.11329651 89.80384827 C89.10813522 91.0454924 89.10297394 92.28713654 89.09765625 93.56640625 C89.09553383 95.46204567 89.09553383 95.46204567 89.09336853 97.39598083 C89.08870582 100.76124889 89.0797148 104.1264499 89.06866455 107.49169922 C89.05844846 110.9234967 89.05387049 114.35530109 89.04882812 117.78710938 C89.0377738 124.52475824 89.0210171 131.26237525 89 138 C88.34 138 87.68 138 87 138 C87 143.28 87 148.56 87 154 C86.34 154 85.68 154 85 154 C85 157.3 85 160.6 85 164 C84.01 164 83.02 164 82 164 C82 166.31 82 168.62 82 171 C81.34 171 80.68 171 80 171 C80 173.31 80 175.62 80 178 C79.34 178 78.68 178 78 178 C78 179.65 78 181.3 78 183 C77.01 183 76.02 183 75 183 C75 183.66 75 184.32 75 185 C74.34 185 73.68 185 73 185 C73 186.65 73 188.3 73 190 C72.34 190 71.68 190 71 190 C71 191.65 71 193.3 71 195 C70.01 195 69.02 195 68 195 C68 195.66 68 196.32 68 197 C67.34 197 66.68 197 66 197 C66 197.66 66 198.32 66 199 C65.01 199 64.02 199 63 199 C63 199.99 63 200.98 63 202 C62.34 202 61.68 202 61 202 C61 202.66 61 203.32 61 204 C60.34 204 59.68 204 59 204 C59 204.66 59 205.32 59 206 C58.01 206 57.02 206 56 206 C56 206.99 56 207.98 56 209 C55.34 209 54.68 209 54 209 C54 209.66 54 210.32 54 211 C52.35 211 50.7 211 49 211 C49 211.99 49 212.98 49 214 C47.68 214 46.36 214 45 214 C45 214.66 45 215.32 45 216 C43.35 216 41.7 216 40 216 C40 216.66 40 217.32 40 218 C36.7 218 33.4 218 30 218 C30 218.99 30 219.98 30 221 C20.1 221 10.2 221 0 221 C0 220.34 0 219.68 0 219 C-2.64 218.67 -5.28 218.34 -8 218 C-8 217.34 -8 216.68 -8 216 C-9.32 216 -10.64 216 -12 216 C-12 215.34 -12 214.68 -12 214 C-13.65 214 -15.3 214 -17 214 C-17 213.01 -17 212.02 -17 211 C-18.65 211 -20.3 211 -22 211 C-22 210.34 -22 209.68 -22 209 C-22.66 209 -23.32 209 -24 209 C-24 208.01 -24 207.02 -24 206 C-24.66 206 -25.32 206 -26 206 C-26 205.34 -26 204.68 -26 204 C-26.99 204 -27.98 204 -29 204 C-29 203.34 -29 202.68 -29 202 C-29.66 202 -30.32 202 -31 202 C-31 201.01 -31 200.02 -31 199 C-31.99 199 -32.98 199 -34 199 C-34 198.34 -34 197.68 -34 197 C-34.66 197 -35.32 197 -36 197 C-36 195.35 -36 193.7 -36 192 C-36.66 192 -37.32 192 -38 192 C-38 191.34 -38 190.68 -38 190 C-38.99 190 -39.98 190 -41 190 C-41 188.35 -41 186.7 -41 185 C-41.66 185 -42.32 185 -43 185 C-43 183.35 -43 181.7 -43 180 C-43.66 180 -44.32 180 -45 180 C-45 177.69 -45 175.38 -45 173 C-45.99 173 -46.98 173 -48 173 C-48 170.69 -48 168.38 -48 166 C-48.66 166 -49.32 166 -50 166 C-50 163.69 -50 161.38 -50 159 C-50.99 159 -51.98 159 -53 159 C-54.53486557 151.26606572 -55.31843717 143.65214567 -55.65795898 135.78930664 C-55.78807195 131.95646388 -55.78807195 131.95646388 -56.50708008 128.20678711 C-57.19679896 125.11893721 -57.12994992 122.16603219 -57.1328125 119.00390625 C-57.13376923 118.33334702 -57.13472595 117.66278778 -57.13571167 116.97190857 C-57.1363904 115.55736192 -57.13455755 114.1428121 -57.13037109 112.72827148 C-57.12502687 110.57333304 -57.1303221 108.4186038 -57.13671875 106.26367188 C-57.13605775 104.88541621 -57.13477613 103.50716067 -57.1328125 102.12890625 C-57.13168457 100.88181885 -57.13055664 99.63473145 -57.12939453 98.34985352 C-57.01601024 95.41448398 -56.62314322 92.85664319 -56 90 C-55.86271858 88.454319 -55.7574037 86.90547779 -55.68359375 85.35546875 C-55.62075195 84.09379883 -55.62075195 84.09379883 -55.55664062 82.80664062 C-55.51732422 81.94232422 -55.47800781 81.07800781 -55.4375 80.1875 C-55.37272461 78.86202148 -55.37272461 78.86202148 -55.30664062 77.50976562 C-55.20108464 75.34000377 -55.10008929 73.1700209 -55 71 C-54.34 71 -53.68 71 -53 71 C-53 67.04 -53 63.08 -53 59 C-52.01 59 -51.02 59 -50 59 C-50 56.03 -50 53.06 -50 50 C-49.34 50 -48.68 50 -48 50 C-48 47.69 -48 45.38 -48 43 C-47.01 43 -46.02 43 -45 43 C-45 41.35 -45 39.7 -45 38 C-44.34 38 -43.68 38 -43 38 C-43 36.35 -43 34.7 -43 33 C-42.34 33 -41.68 33 -41 33 C-41 31.35 -41 29.7 -41 28 C-40.01 28 -39.02 28 -38 28 C-38 26.68 -38 25.36 -38 24 C-37.34 24 -36.68 24 -36 24 C-36 23.01 -36 22.02 -36 21 C-35.34 21 -34.68 21 -34 21 C-34 20.34 -34 19.68 -34 19 C-33.01 19 -32.02 19 -31 19 C-31 18.34 -31 17.68 -31 17 C-30.34 17 -29.68 17 -29 17 C-29 16.01 -29 15.02 -29 14 C-28.01 14 -27.02 14 -26 14 C-26 13.34 -26 12.68 -26 12 C-25.34 12 -24.68 12 -24 12 C-24 11.01 -24 10.02 -24 9 C-22.35 9 -20.7 9 -19 9 C-19 8.34 -19 7.68 -19 7 C-17.68 7 -16.36 7 -15 7 C-15 6.34 -15 5.68 -15 5 C-13.35 5 -11.7 5 -10 5 C-10 4.01 -10 3.02 -10 2 C-6.7 2 -3.4 2 0 2 C0 1.34 0 0.68 0 0 Z " fill="#FEFDFD" transform="translate(190,115)"/>
<path d="M0 0 C0.33 0 0.66 0 1 0 C1 2.64 1 5.28 1 8 C1.66 8 2.32 8 3 8 C3.04898437 9.03640625 3.09796875 10.0728125 3.1484375 11.140625 C3.22349597 12.51044208 3.29904247 13.88023248 3.375 15.25 C3.4059375 15.93191406 3.436875 16.61382812 3.46875 17.31640625 C3.64452859 21.22009727 3.64452859 21.22009727 5.01147461 24.81738281 C6.36897931 27.81468883 6.24200928 30.31171246 6.23046875 33.59375 C6.22853516 34.87121094 6.22660156 36.14867187 6.22460938 37.46484375 C6.21840576 38.12726074 6.21220215 38.78967773 6.20581055 39.47216797 C6.18756057 41.49329254 6.18530105 43.51395786 6.18554688 45.53515625 C6.13660623 56.31297411 6.13660623 56.31297411 5 60 C4.34 60 3.68 60 3 60 C2.23679166 43.3230859 1.85204165 26.69425389 2 10 C1.34 10 0.68 10 0 10 C0 6.7 0 3.4 0 0 Z " fill="#DF9086" transform="translate(326,181)"/>
<path d="M0 0 C0.66 0 1.32 0 2 0 C2.06058594 0.99902344 2.12117188 1.99804688 2.18359375 3.02734375 C2.26738281 4.31769531 2.35117187 5.60804688 2.4375 6.9375 C2.51871094 8.22527344 2.59992188 9.51304687 2.68359375 10.83984375 C2.64919188 13.86023957 2.64919188 13.86023957 4 15 C4.09370624 16.77991924 4.11744271 18.56356739 4.11352539 20.34594727 C4.11344986 21.4870546 4.11337433 22.62816193 4.11329651 23.80384827 C4.10813522 25.0454924 4.10297394 26.28713654 4.09765625 27.56640625 C4.0962413 28.83016586 4.09482635 30.09392548 4.09336853 31.39598083 C4.08870582 34.76124889 4.0797148 38.1264499 4.06866455 41.49169922 C4.05844846 44.9234967 4.05387049 48.35530109 4.04882812 51.78710938 C4.0377738 58.52475824 4.0210171 65.26237525 4 72 C3.34 72 2.68 72 2 72 C2.00523682 70.95658447 2.01047363 69.91316895 2.01586914 68.83813477 C2.03410607 64.92994053 2.04549969 61.02174997 2.05493164 57.11352539 C2.05992943 55.42894862 2.06672989 53.74437612 2.07543945 52.05981445 C2.08770622 49.62450094 2.09327398 47.18924526 2.09765625 44.75390625 C2.10281754 44.01290176 2.10797882 43.27189728 2.11329651 42.50843811 C2.11377064 37.98831018 1.7842856 33.60444883 1.23927307 29.11830139 C0.90436318 26.15332051 0.78440957 23.19611144 0.68359375 20.21484375 C0.64169922 19.02568359 0.59980469 17.83652344 0.55664062 16.61132812 C0.51732422 15.39896484 0.47800781 14.18660156 0.4375 12.9375 C0.39431641 11.69033203 0.35113281 10.44316406 0.30664062 9.15820312 C0.20137704 6.10555909 0.09924059 3.05284477 0 0 Z " fill="#E9B3AB" transform="translate(275,181)"/>
<path d="M0 0 C0.33 0 0.66 0 1 0 C1 3.96 1 7.92 1 12 C0.34 12 -0.32 12 -1 12 C-0.98839844 13.31355469 -0.97679687 14.62710938 -0.96484375 15.98046875 C-0.95546172 17.71614441 -0.94636196 19.45182161 -0.9375 21.1875 C-0.92912109 22.05181641 -0.92074219 22.91613281 -0.91210938 23.80664062 C-0.90888672 24.64775391 -0.90566406 25.48886719 -0.90234375 26.35546875 C-0.89710693 27.12528076 -0.89187012 27.89509277 -0.88647461 28.68823242 C-1 31 -1 31 -1.49780273 33.34472656 C-2.12183357 36.64417207 -2.12977545 39.77101676 -2.1328125 43.12890625 C-2.13376923 43.80042221 -2.13472595 44.47193817 -2.13571167 45.1638031 C-2.13638922 46.57656956 -2.1345647 47.98933921 -2.13037109 49.40209961 C-2.12500832 51.55915328 -2.13033477 53.71599955 -2.13671875 55.87304688 C-2.13605806 57.25000046 -2.13477708 58.62695391 -2.1328125 60.00390625 C-2.13168457 61.24986572 -2.13055664 62.4958252 -2.12939453 63.77954102 C-2.02246417 66.44089636 -1.69604568 68.46798848 -1 71 C-0.8578299 72.58567839 -0.75495959 74.17518632 -0.68359375 75.765625 C-0.64169922 76.65507812 -0.59980469 77.54453125 -0.55664062 78.4609375 C-0.51732422 79.38132812 -0.47800781 80.30171875 -0.4375 81.25 C-0.39431641 82.18585938 -0.35113281 83.12171875 -0.30664062 84.0859375 C-0.2008195 86.39048641 -0.09873443 88.69513839 0 91 C-0.66 91 -1.32 91 -2 91 C-2.06058594 89.81921875 -2.12117187 88.6384375 -2.18359375 87.421875 C-2.26802582 85.8645723 -2.35267249 84.30728121 -2.4375 82.75 C-2.47681641 81.97269531 -2.51613281 81.19539063 -2.55664062 80.39453125 C-2.59853516 79.64042969 -2.64042969 78.88632813 -2.68359375 78.109375 C-2.72025146 77.41811523 -2.75690918 76.72685547 -2.79467773 76.01464844 C-2.94449293 74.00539523 -2.94449293 74.00539523 -3.50474548 72.13471985 C-4.01058253 69.95438561 -4.12689196 68.06452325 -4.12939453 65.82983398 C-4.13254669 65.01896835 -4.13569885 64.20810272 -4.13894653 63.37266541 C-4.13591019 62.07251244 -4.13591019 62.07251244 -4.1328125 60.74609375 C-4.13376923 59.84883072 -4.13472595 58.95156769 -4.13571167 58.02711487 C-4.13639123 56.13339162 -4.13455255 54.23966602 -4.13037109 52.34594727 C-4.12501343 49.44477117 -4.13032688 46.54374945 -4.13671875 43.64257812 C-4.13605805 41.80208299 -4.13477706 39.96158795 -4.1328125 38.12109375 C-4.13483673 37.25230087 -4.13686096 36.383508 -4.13894653 35.48838806 C-4.13579437 34.68067459 -4.13264221 33.87296112 -4.12939453 33.04077148 C-4.12859894 32.33113754 -4.12780334 31.6215036 -4.12698364 30.8903656 C-4 29 -4 29 -3 26 C-2.77202438 23.26710707 -2.58331813 20.54957796 -2.4375 17.8125 C-2.39431641 17.06291016 -2.35113281 16.31332031 -2.30664062 15.54101562 C-2.20077315 13.69421625 -2.0999024 11.84713166 -2 10 C-1.34 10 -0.68 10 0 10 C0 6.7 0 3.4 0 0 Z " fill="#D77168" transform="translate(136,174)"/>
<path d="M0 0 C0.33 0 0.66 0 1 0 C1 16.83 1 33.66 1 51 C1.66 51 2.32 51 3 51 C3 55.95 3 60.9 3 66 C2.67 66 2.34 66 2 66 C2 63.03 2 60.06 2 57 C1.34 57 0.68 57 0 57 C-1.59979357 38.08815461 -1.74713371 18.90648266 0 0 Z " fill="#E9B4AD" transform="translate(82,196)"/>
<path d="M0 0 C9.9 0 19.8 0 30 0 C30 0.99 30 1.98 30 3 C20.1 3 10.2 3 0 3 C0 2.01 0 1.02 0 0 Z " fill="#F4DFD9" transform="translate(190,333)"/>
<path d="M0 0 C2 2 2 2 2.24291992 4.10717773 C2.23881104 4.95739502 2.23470215 5.8076123 2.23046875 6.68359375 C2.22853516 7.61107422 2.22660156 8.53855469 2.22460938 9.49414062 C2.21236328 10.46544922 2.20011719 11.43675781 2.1875 12.4375 C2.18685547 13.40494141 2.18621094 14.37238281 2.18554688 15.36914062 C2.14052002 22.57843993 2.14052002 22.57843993 1 26 C0.34 26 -0.32 26 -1 26 C-1.02886751 21.85418113 -1.04675327 17.70838784 -1.0625 13.5625 C-1.07087891 12.37849609 -1.07925781 11.19449219 -1.08789062 9.97460938 C-1.09111328 8.84990234 -1.09433594 7.72519531 -1.09765625 6.56640625 C-1.10289307 5.52427979 -1.10812988 4.48215332 -1.11352539 3.40844727 C-1 1 -1 1 0 0 Z " fill="#FAF3EF" transform="translate(382,94)"/>
<path d="M0 0 C0.33 0 0.66 0 1 0 C1 2.31 1 4.62 1 7 C0.34 7 -0.32 7 -1 7 C-1 9.31 -1 11.62 -1 14 C-1.66 14 -2.32 14 -3 14 C-2.979375 15.27875 -2.95875 16.5575 -2.9375 17.875 C-2.875 21.75 -2.875 21.75 -4 24 C-4.66 24 -5.32 24 -6 24 C-5.97679688 24.61488281 -5.95359375 25.22976562 -5.9296875 25.86328125 C-5.91164063 26.67152344 -5.89359375 27.47976562 -5.875 28.3125 C-5.85179688 29.11300781 -5.82859375 29.91351563 -5.8046875 30.73828125 C-6 33 -6 33 -8 36 C-7.85899143 33.72886197 -7.71203245 31.45809275 -7.5625 29.1875 C-7.48128906 27.92292969 -7.40007812 26.65835938 -7.31640625 25.35546875 C-7 22 -7 22 -6 19 C-5.34 19 -4.68 19 -4 19 C-4 16.69 -4 14.38 -4 12 C-3.34 12 -2.68 12 -2 12 C-2 9.69 -2 7.38 -2 5 C-1.34 5 -0.68 5 0 5 C0 3.35 0 1.7 0 0 Z " fill="#E6ABA3" transform="translate(91,160)"/>
<path d="M0 0 C0.99 0 1.98 0 3 0 C3 2.31 3 4.62 3 7 C3.66 7 4.32 7 5 7 C5 9.31 5 11.62 5 14 C5.99 14 6.98 14 8 14 C8 16.31 8 18.62 8 21 C7.67 20.01 7.34 19.02 7 18 C6.01 18 5.02 18 4 18 C4 16.02 4 14.04 4 12 C3.34 12 2.68 12 2 12 C2 8.7 2 5.4 2 2 C1.34 2 0.68 2 0 2 C0 1.34 0 0.68 0 0 Z " fill="#DB7F76" transform="translate(137,274)"/>
<path d="M0 0 C0.33 0 0.66 0 1 0 C1 2.31 1 4.62 1 7 C0.34 7 -0.32 7 -1 7 C-1 10.3 -1 13.6 -1 17 C-1.99 17 -2.98 17 -4 17 C-4 19.31 -4 21.62 -4 24 C-4.66 24 -5.32 24 -6 24 C-5.85904936 22.3745692 -5.71207913 20.74965949 -5.5625 19.125 C-5.48128906 18.22007812 -5.40007812 17.31515625 -5.31640625 16.3828125 C-5 14 -5 14 -4 12 C-3.34 12 -2.68 12 -2 12 C-2 9.03 -2 6.06 -2 3 C-1.34 3 -0.68 3 0 3 C0 2.01 0 1.02 0 0 Z " fill="#E6ABA3" transform="translate(276,262)"/>
<path d="M0 0 C4.29 0 8.58 0 13 0 C13 0.99 13 1.98 13 3 C8.71 3 4.42 3 0 3 C0 2.01 0 1.02 0 0 Z " fill="#EDC7BF" transform="translate(190,333)"/>
<path d="M0 0 C0.66 0 1.32 0 2 0 C2 1.65 2 3.3 2 5 C2.99 5 3.98 5 5 5 C5 6.32 5 7.64 5 9 C5.66 9 6.32 9 7 9 C7 11.31 7 13.62 7 16 C6.67 14.68 6.34 13.36 6 12 C5.34 12 4.68 12 4 12 C4 11.01 4 10.02 4 9 C3.01 9 2.02 9 1 9 C0.67 6.03 0.34 3.06 0 0 Z " fill="#E8B1AA" transform="translate(263,146)"/>
<path d="M0 0 C1.50433594 0.01353516 1.50433594 0.01353516 3.0390625 0.02734375 C3.80992187 0.03894531 4.58078125 0.05054687 5.375 0.0625 C5.375 1.0525 5.375 2.0425 5.375 3.0625 C1.415 3.0625 -2.545 3.0625 -6.625 3.0625 C-6.955 2.4025 -7.285 1.7425 -7.625 1.0625 C-4.98041621 -0.25979189 -2.94738699 -0.03427194 0 0 Z " fill="#CD473C" transform="translate(301.625,116.9375)"/>
<path d="M0 0 C0.66 0 1.32 0 2 0 C2 1.32 2 2.64 2 4 C2.99 4 3.98 4 5 4 C5 5.65 5 7.3 5 9 C5.66 9 6.32 9 7 9 C7 10.65 7 12.3 7 14 C6.67 13.34 6.34 12.68 6 12 C5.34 12 4.68 12 4 12 C4 10.35 4 8.7 4 7 C3.01 7 2.02 7 1 7 C0.67 4.69 0.34 2.38 0 0 Z " fill="#D8746A" transform="translate(308,139)"/>
<path d="M0 0 C0.80050781 0.03480469 1.60101563 0.06960937 2.42578125 0.10546875 C3.63814453 0.14607422 3.63814453 0.14607422 4.875 0.1875 C5.48988281 0.22230469 6.10476563 0.25710937 6.73828125 0.29296875 C6.73828125 1.28296875 6.73828125 2.27296875 6.73828125 3.29296875 C2.77828125 3.29296875 -1.18171875 3.29296875 -5.26171875 3.29296875 C-2.26171875 0.29296875 -2.26171875 0.29296875 0 0 Z " fill="#CD473C" transform="translate(316.26171875,116.70703125)"/>
<path d="M0 0 C1.32 0 2.64 0 4 0 C4 0.99 4 1.98 4 3 C3.01 3 2.02 3 1 3 C1 5.31 1 7.62 1 10 C0.34 10 -0.32 10 -1 10 C-0.67 6.7 -0.34 3.4 0 0 Z " fill="#E39D94" transform="translate(271,276)"/>
<path d="M0 0 C0.99 0 1.98 0 3 0 C3 3.3 3 6.6 3 10 C2.67 10 2.34 10 2 10 C2 8.35 2 6.7 2 5 C1.34 5 0.68 5 0 5 C0 3.35 0 1.7 0 0 Z " fill="#E6AAA1" transform="translate(85,262)"/>
<path d="M0 0 C1.32 0 2.64 0 4 0 C4 0.99 4 1.98 4 3 C3.01 3 2.02 3 1 3 C1 4.32 1 5.64 1 7 C0.34 7 -0.32 7 -1 7 C-0.67 4.69 -0.34 2.38 0 0 Z " fill="#E4A39A" transform="translate(96,148)"/>
<path d="M0 0 C0.33 0 0.66 0 1 0 C1.125 6.75 1.125 6.75 0 9 C-0.66 9 -1.32 9 -2 9 C-2 7.35 -2 5.7 -2 4 C-1.34 4 -0.68 4 0 4 C0 2.68 0 1.36 0 0 Z " fill="#F2DAD3" transform="translate(331,237)"/>
<path d="M0 0 C0.99 0 1.98 0 3 0 C3 2.31 3 4.62 3 7 C2.67 6.34 2.34 5.68 2 5 C1.34 5 0.68 5 0 5 C0 3.35 0 1.7 0 0 Z " fill="#F0CFC7" transform="translate(324,174)"/>
</svg>
