<?xml version="1.0" encoding="UTF-8"?>
<svg version="1.1" xmlns="http://www.w3.org/2000/svg" width="180" height="180">
<path d="M0 0 C59.4 0 118.8 0 180 0 C180 59.4 180 118.8 180 180 C120.6 180 61.2 180 0 180 C0 120.6 0 61.2 0 0 Z " fill="#F3F3F3" transform="translate(0,0)"/>
<path d="M0 0 C12.72767619 11.94102108 21.98052199 27.28544682 22.9387207 45.02416992 C23.25947056 55.52949136 23.48218455 65.69933604 19.8125 75.6875 C19.17441406 77.42773438 19.17441406 77.42773438 18.5234375 79.203125 C15.55230548 86.67067607 12.09009805 92.65769257 6.8125 98.6875 C6.36519531 99.27660156 5.91789062 99.86570312 5.45703125 100.47265625 C-5.55295136 114.64679808 -22.86221163 122.11990186 -40.1875 124.6875 C-59.85510397 126.63833521 -78.79853676 119.80678773 -94.37890625 108.03125 C-106.81409522 97.71320671 -117.26507975 81.23364643 -119.02197266 64.90966797 C-119.33626478 60.69036576 -119.3719507 56.47937973 -119.375 52.25 C-119.39336914 50.91485352 -119.39336914 50.91485352 -119.41210938 49.55273438 C-119.45394051 30.46379125 -110.32374937 14.0566616 -97.1875 0.6875 C-96.64609375 0.13320313 -96.1046875 -0.42109375 -95.546875 -0.9921875 C-68.76016765 -26.02017164 -26.70614738 -23.08290482 0 0 Z " fill="#000000" transform="translate(138.1875,37.3125)"/>
</svg>
