<?xml version="1.0" encoding="UTF-8"?>
<svg version="1.1" xmlns="http://www.w3.org/2000/svg" width="431" height="431">
<path d="M0 0 C2.00189203 0.00056514 4.00378448 0.00024555 6.00567627 -0.00088501 C11.40353156 -0.00145551 16.80129677 0.01024949 22.19913125 0.02426291 C27.85387473 0.03682103 33.50862059 0.03794475 39.16337585 0.04031372 C49.85504322 0.04651361 60.54666936 0.06290415 71.23831862 0.0830127 C83.4173427 0.10541824 95.59636881 0.11637681 107.77540839 0.12640357 C132.81342982 0.14727177 157.85141474 0.1824186 182.8894043 0.22705078 C184.59033416 8.73170009 183.8894043 17.55397623 183.8894043 26.22705078 C141.3194043 26.72205078 141.3194043 26.72205078 97.8894043 27.22705078 C100.1994043 29.86705078 102.5094043 32.50705078 104.8894043 35.22705078 C104.8894043 36.21705078 104.8894043 37.20705078 104.8894043 38.22705078 C105.8794043 38.22705078 106.8694043 38.22705078 107.8894043 38.22705078 C107.8894043 38.88705078 107.8894043 39.54705078 107.8894043 40.22705078 C108.5494043 40.22705078 109.2094043 40.22705078 109.8894043 40.22705078 C110.5494043 42.53705078 111.2094043 44.84705078 111.8894043 47.22705078 C112.8794043 47.22705078 113.8694043 47.22705078 114.8894043 47.22705078 C115.56468652 48.80672885 116.22930124 50.39096981 116.8894043 51.97705078 C117.2606543 52.85876953 117.6319043 53.74048828 118.0144043 54.64892578 C118.8894043 57.22705078 118.8894043 57.22705078 118.8894043 61.22705078 C119.8794043 61.22705078 120.8694043 61.22705078 121.8894043 61.22705078 C121.8894043 62.87705078 121.8894043 64.52705078 121.8894043 66.22705078 C122.5494043 66.22705078 123.2094043 66.22705078 123.8894043 66.22705078 C124.8794043 70.84705078 125.8694043 75.46705078 126.8894043 80.22705078 C127.5494043 80.22705078 128.2094043 80.22705078 128.8894043 80.22705078 C128.94999023 80.93732422 129.01057617 81.64759766 129.07299805 82.37939453 C129.15678711 83.29849609 129.24057617 84.21759766 129.3269043 85.16455078 C129.4487207 86.53933594 129.4487207 86.53933594 129.57299805 87.94189453 C129.64985406 90.1886481 129.64985406 90.1886481 130.8894043 91.22705078 C131.17503192 93.96998274 131.33779703 96.71313917 131.51049805 99.46533203 C131.71948404 102.17081342 131.71948404 102.17081342 132.89691162 104.11805725 C134.02320671 106.51137371 134.142791 108.09985475 134.14819336 110.73266602 C134.15449768 111.61715927 134.160802 112.50165253 134.16729736 113.41294861 C134.16122467 114.83493309 134.16122467 114.83493309 134.1550293 116.28564453 C134.15694275 117.26694839 134.1588562 118.24825226 134.16082764 119.2592926 C134.16218755 121.33293922 134.15850466 123.4065944 134.15014648 125.48022461 C134.1394558 128.64928391 134.15004256 131.81777486 134.1628418 134.98681641 C134.16151994 137.0030937 134.15895702 139.01937063 134.1550293 141.03564453 C134.15907776 141.98160995 134.16312622 142.92757538 134.16729736 143.90220642 C134.13464757 148.49928159 133.95071409 152.02465142 131.8894043 156.22705078 C131.61063911 158.32304938 131.40351686 160.42967689 131.2644043 162.53955078 C131.18963867 163.60818359 131.11487305 164.67681641 131.0378418 165.77783203 C130.96436523 166.99019531 130.96436523 166.99019531 130.8894043 168.22705078 C130.2294043 168.22705078 129.5694043 168.22705078 128.8894043 168.22705078 C129.2194043 169.21705078 129.5494043 170.20705078 129.8894043 171.22705078 C129.31248122 177.80397386 129.31248122 177.80397386 126.8894043 180.22705078 C126.27884343 182.24918356 125.74576435 184.29533056 125.2644043 186.35205078 C125.00401367 187.44775391 124.74362305 188.54345703 124.4753418 189.67236328 C124.18530273 190.93693359 124.18530273 190.93693359 123.8894043 192.22705078 C123.2294043 192.22705078 122.5694043 192.22705078 121.8894043 192.22705078 C121.8894043 193.87705078 121.8894043 195.52705078 121.8894043 197.22705078 C120.8994043 197.22705078 119.9094043 197.22705078 118.8894043 197.22705078 C118.7450293 198.15517578 118.6006543 199.08330078 118.4519043 200.03955078 C117.8894043 203.22705078 117.8894043 203.22705078 116.8894043 206.22705078 C116.2294043 206.22705078 115.5694043 206.22705078 114.8894043 206.22705078 C114.8894043 207.87705078 114.8894043 209.52705078 114.8894043 211.22705078 C113.8994043 211.22705078 112.9094043 211.22705078 111.8894043 211.22705078 C111.2294043 213.53705078 110.5694043 215.84705078 109.8894043 218.22705078 C109.2294043 218.22705078 108.5694043 218.22705078 107.8894043 218.22705078 C107.8894043 218.88705078 107.8894043 219.54705078 107.8894043 220.22705078 C106.8994043 220.22705078 105.9094043 220.22705078 104.8894043 220.22705078 C104.7347168 221.40267578 104.7347168 221.40267578 104.5769043 222.60205078 C103.8894043 225.22705078 103.8894043 225.22705078 100.8894043 227.22705078 C100.5594043 228.21705078 100.2294043 229.20705078 99.8894043 230.22705078 C98.40112305 231.69189453 98.40112305 231.69189453 96.5769043 233.16455078 C94.44474982 234.91658755 92.50802074 236.618742 90.5769043 238.60205078 C88.8894043 240.22705078 88.8894043 240.22705078 86.8894043 240.22705078 C86.5594043 240.88705078 86.2294043 241.54705078 85.8894043 242.22705078 C85.2294043 242.22705078 84.5694043 242.22705078 83.8894043 242.22705078 C83.8894043 242.88705078 83.8894043 243.54705078 83.8894043 244.22705078 C82.8994043 244.22705078 81.9094043 244.22705078 80.8894043 244.22705078 C80.8894043 244.88705078 80.8894043 245.54705078 80.8894043 246.22705078 C79.5694043 246.22705078 78.2494043 246.22705078 76.8894043 246.22705078 C76.8894043 247.21705078 76.8894043 248.20705078 76.8894043 249.22705078 C75.1878418 249.62923828 75.1878418 249.62923828 73.4519043 250.03955078 C72.2762793 250.43142578 71.1006543 250.82330078 69.8894043 251.22705078 C69.5594043 252.21705078 69.2294043 253.20705078 68.8894043 254.22705078 C65.13032789 255.85028832 61.96854217 256.46700007 57.8894043 256.22705078 C57.8894043 256.88705078 57.8894043 257.54705078 57.8894043 258.22705078 C55.5794043 258.22705078 53.2694043 258.22705078 50.8894043 258.22705078 C50.8894043 259.21705078 50.8894043 260.20705078 50.8894043 261.22705078 C49.7550293 261.37142578 48.6206543 261.51580078 47.4519043 261.66455078 C44.08163229 261.83876556 44.08163229 261.83876556 42.8894043 263.22705078 C40.04967894 263.5505638 37.20866693 263.74009368 34.3581543 263.94580078 C31.94804379 263.96090343 31.94804379 263.96090343 30.8894043 265.22705078 C28.13368117 265.47073372 25.40099262 265.65430976 22.6394043 265.78955078 C21.41302246 265.85215088 21.41302246 265.85215088 20.16186523 265.91601562 C-9.85027683 267.35721022 -9.85027683 267.35721022 -16.1105957 264.22705078 C-17.81423392 264.00082997 -19.52388271 263.81816605 -21.2355957 263.66455078 C-22.14567383 263.58076172 -23.05575195 263.49697266 -23.9934082 263.41064453 C-24.69208008 263.35005859 -25.39075195 263.28947266 -26.1105957 263.22705078 C-26.1105957 262.56705078 -26.1105957 261.90705078 -26.1105957 261.22705078 C-28.7505957 261.22705078 -31.3905957 261.22705078 -34.1105957 261.22705078 C-34.1105957 260.23705078 -34.1105957 259.24705078 -34.1105957 258.22705078 C-35.2243457 258.30955078 -36.3380957 258.39205078 -37.4855957 258.47705078 C-42.86566576 258.51561759 -47.29279873 256.43849857 -52.1105957 254.22705078 C-52.1105957 253.23705078 -52.1105957 252.24705078 -52.1105957 251.22705078 C-53.7605957 251.22705078 -55.4105957 251.22705078 -57.1105957 251.22705078 C-57.1105957 250.56705078 -57.1105957 249.90705078 -57.1105957 249.22705078 C-58.4305957 249.22705078 -59.7505957 249.22705078 -61.1105957 249.22705078 C-61.1105957 248.23705078 -61.1105957 247.24705078 -61.1105957 246.22705078 C-61.9149707 246.07236328 -61.9149707 246.07236328 -62.7355957 245.91455078 C-65.73561614 245.04612381 -68.3485492 243.67084782 -71.1105957 242.22705078 C-71.1105957 241.56705078 -71.1105957 240.90705078 -71.1105957 240.22705078 C-72.5646582 239.29892578 -72.5646582 239.29892578 -74.0480957 238.35205078 C-77.42863602 236.00636974 -77.26732804 235.84105507 -78.1105957 232.22705078 C-80.60093957 230.93044645 -80.60093957 230.93044645 -83.1105957 230.22705078 C-83.1105957 229.23705078 -83.1105957 228.24705078 -83.1105957 227.22705078 C-83.7705957 227.22705078 -84.4305957 227.22705078 -85.1105957 227.22705078 C-85.1105957 226.56705078 -85.1105957 225.90705078 -85.1105957 225.22705078 C-86.1005957 225.22705078 -87.0905957 225.22705078 -88.1105957 225.22705078 C-88.1105957 224.56705078 -88.1105957 223.90705078 -88.1105957 223.22705078 C-88.7705957 222.89705078 -89.4305957 222.56705078 -90.1105957 222.22705078 C-90.4199707 221.40205078 -90.7293457 220.57705078 -91.0480957 219.72705078 C-91.3987207 218.90205078 -91.7493457 218.07705078 -92.1105957 217.22705078 C-93.1005957 216.89705078 -94.0905957 216.56705078 -95.1105957 216.22705078 C-96.42700195 214.01220703 -96.42700195 214.01220703 -97.6730957 211.28955078 C-99.43497181 207.44628003 -99.43497181 207.44628003 -102.1105957 204.22705078 C-102.95797701 201.91793673 -103.63480914 199.58230405 -104.3293457 197.22314453 C-104.92688561 195.03977677 -104.92688561 195.03977677 -107.1105957 194.22705078 C-107.1105957 192.57705078 -107.1105957 190.92705078 -107.1105957 189.22705078 C-107.7705957 188.89705078 -108.4305957 188.56705078 -109.1105957 188.22705078 C-109.1105957 186.24705078 -109.1105957 184.26705078 -109.1105957 182.22705078 C-109.7705957 181.89705078 -110.4305957 181.56705078 -111.1105957 181.22705078 C-111.1105957 179.24705078 -111.1105957 177.26705078 -111.1105957 175.22705078 C-111.7705957 175.22705078 -112.4305957 175.22705078 -113.1105957 175.22705078 C-114.37297301 172.70229616 -114.20915975 170.91504612 -114.1730957 168.10205078 C-114.16407227 167.19197266 -114.15504883 166.28189453 -114.14575195 165.34423828 C-114.13415039 164.64556641 -114.12254883 163.94689453 -114.1105957 163.22705078 C-114.7705957 162.89705078 -115.4305957 162.56705078 -116.1105957 162.22705078 C-116.40046548 159.80350036 -116.57856287 157.47204209 -116.6730957 155.03955078 C-116.91006843 149.70800717 -116.91006843 149.70800717 -117.6262207 144.43017578 C-118.34487082 139.67781212 -118.30153708 134.96450662 -118.2980957 130.16455078 C-118.29801514 129.11775146 -118.29793457 128.07095215 -118.29785156 126.99243164 C-118.09192606 98.20838113 -118.09192606 98.20838113 -115.1105957 95.22705078 C-114.90220555 93.58597836 -114.74307845 91.93848785 -114.6105957 90.28955078 C-114.22037272 85.44660481 -114.22037272 85.44660481 -113.1105957 83.22705078 C-112.4505957 83.22705078 -111.7905957 83.22705078 -111.1105957 83.22705078 C-111.1312207 82.09267578 -111.1518457 80.95830078 -111.1730957 79.78955078 C-111.1105957 76.22705078 -111.1105957 76.22705078 -110.1105957 75.22705078 C-109.74298839 72.89887114 -109.40817989 70.56521228 -109.1105957 68.22705078 C-108.4505957 68.22705078 -107.7905957 68.22705078 -107.1105957 68.22705078 C-107.1105957 66.90705078 -107.1105957 65.58705078 -107.1105957 64.22705078 C-106.1205957 63.73205078 -106.1205957 63.73205078 -105.1105957 63.22705078 C-104.04832232 61.02142313 -104.04832232 61.02142313 -103.1105957 58.41455078 C-101.91648042 55.25667561 -100.6739324 52.22111973 -99.1105957 49.22705078 C-98.4505957 49.22705078 -97.7905957 49.22705078 -97.1105957 49.22705078 C-96.9662207 48.62892578 -96.8218457 48.03080078 -96.6730957 47.41455078 C-95.57166092 43.13119328 -94.19892406 41.31537913 -91.1105957 38.22705078 C-90.7805957 37.23705078 -90.4505957 36.24705078 -90.1105957 35.22705078 C-89.4505957 35.22705078 -88.7905957 35.22705078 -88.1105957 35.22705078 C-88.1105957 34.56705078 -88.1105957 33.90705078 -88.1105957 33.22705078 C-87.1205957 33.22705078 -86.1305957 33.22705078 -85.1105957 33.22705078 C-85.0177832 32.36080078 -85.0177832 32.36080078 -84.9230957 31.47705078 C-83.7881184 28.33403672 -81.73687965 27.22802902 -79.1105957 25.22705078 C-78.6362207 24.54642578 -78.1618457 23.86580078 -77.6730957 23.16455078 C-75.57692605 20.56530041 -73.09047535 19.65221061 -70.1105957 18.22705078 C-69.7805957 17.56705078 -69.4505957 16.90705078 -69.1105957 16.22705078 C-66.48478432 14.65156395 -65.23959783 14.22705078 -62.1105957 14.22705078 C-62.1105957 13.56705078 -62.1105957 12.90705078 -62.1105957 12.22705078 C-61.0896582 11.82486328 -61.0896582 11.82486328 -60.0480957 11.41455078 C-57.92022255 10.55434674 -55.81838451 9.62880486 -53.7355957 8.66455078 C-50.12804879 7.23397183 -46.95688921 6.61952971 -43.1105957 6.22705078 C-43.1105957 5.56705078 -43.1105957 4.90705078 -43.1105957 4.22705078 C-39.78438831 3.52126411 -36.44964079 2.86919903 -33.1105957 2.22705078 C-32.21815564 2.04905504 -31.32571558 1.8710593 -30.40623188 1.68766975 C-20.26437041 -0.11822419 -10.26140669 -0.04084895 0 0 Z M-1.1105957 22.22705078 C-3.12654152 22.46132856 -5.1490697 22.64041202 -7.1730957 22.78955078 C-8.83018555 22.91523437 -8.83018555 22.91523437 -10.52075195 23.04345703 C-11.37540039 23.10404297 -12.23004883 23.16462891 -13.1105957 23.22705078 C-13.1105957 24.21705078 -13.1105957 25.20705078 -13.1105957 26.22705078 C-15.4205957 26.22705078 -17.7305957 26.22705078 -20.1105957 26.22705078 C-20.1105957 26.88705078 -20.1105957 27.54705078 -20.1105957 28.22705078 C-21.7605957 28.22705078 -23.4105957 28.22705078 -25.1105957 28.22705078 C-25.1105957 28.88705078 -25.1105957 29.54705078 -25.1105957 30.22705078 C-26.7605957 30.55705078 -28.4105957 30.88705078 -30.1105957 31.22705078 C-30.1105957 31.88705078 -30.1105957 32.54705078 -30.1105957 33.22705078 C-30.7705957 33.22705078 -31.4305957 33.22705078 -32.1105957 33.22705078 C-32.1105957 33.88705078 -32.1105957 34.54705078 -32.1105957 35.22705078 C-32.7705957 35.22705078 -33.4305957 35.22705078 -34.1105957 35.22705078 C-34.1105957 36.21705078 -34.1105957 37.20705078 -34.1105957 38.22705078 C-35.1005957 38.22705078 -36.0905957 38.22705078 -37.1105957 38.22705078 C-37.1105957 38.88705078 -37.1105957 39.54705078 -37.1105957 40.22705078 C-37.7705957 40.22705078 -38.4305957 40.22705078 -39.1105957 40.22705078 C-39.1105957 40.88705078 -39.1105957 41.54705078 -39.1105957 42.22705078 C-40.1005957 42.22705078 -41.0905957 42.22705078 -42.1105957 42.22705078 C-42.1105957 43.21705078 -42.1105957 44.20705078 -42.1105957 45.22705078 C-42.7705957 45.22705078 -43.4305957 45.22705078 -44.1105957 45.22705078 C-44.7912207 46.92861328 -44.7912207 46.92861328 -45.4855957 48.66455078 C-47.1105957 52.22705078 -47.1105957 52.22705078 -49.1105957 53.22705078 C-49.1105957 54.54705078 -49.1105957 55.86705078 -49.1105957 57.22705078 C-49.7705957 57.22705078 -50.4305957 57.22705078 -51.1105957 57.22705078 C-51.1105957 58.54705078 -51.1105957 59.86705078 -51.1105957 61.22705078 C-52.1005957 61.72205078 -52.1005957 61.72205078 -53.1105957 62.22705078 C-53.1105957 64.20705078 -53.1105957 66.18705078 -53.1105957 68.22705078 C-54.5955957 68.72205078 -54.5955957 68.72205078 -56.1105957 69.22705078 C-56.1105957 71.53705078 -56.1105957 73.84705078 -56.1105957 76.22705078 C-57.1005957 76.72205078 -57.1005957 76.72205078 -58.1105957 77.22705078 C-58.1105957 79.86705078 -58.1105957 82.50705078 -58.1105957 85.22705078 C-58.7705957 85.22705078 -59.4305957 85.22705078 -60.1105957 85.22705078 C-61.44058918 87.88703773 -61.409416 90.20074269 -61.6105957 93.16455078 C-61.8346603 96.45750016 -62.06447264 99.0886816 -63.1105957 102.22705078 C-63.20357897 104.0004479 -63.23851598 105.77714602 -63.23999023 107.55297852 C-63.2431424 108.64098251 -63.24629456 109.72898651 -63.24954224 110.84996033 C-63.24751801 112.02498611 -63.24549377 113.2000119 -63.2434082 114.41064453 C-63.24436493 115.61769547 -63.24532166 116.8247464 -63.24630737 118.06837463 C-63.24698837 120.6229762 -63.24513967 123.17757949 -63.2409668 125.73217773 C-63.2356221 129.64522184 -63.24091215 133.55815091 -63.24731445 137.47119141 C-63.24665357 139.95100937 -63.24537219 142.43082726 -63.2434082 144.91064453 C-63.24543243 146.08364609 -63.24745667 147.25664764 -63.24954224 148.4651947 C-63.24639008 149.55635086 -63.24323792 150.64750702 -63.23999023 151.77172852 C-63.23919464 152.73086655 -63.23839905 153.69000458 -63.23757935 154.6782074 C-63.12066264 157.02498501 -62.73349303 158.97366981 -62.1105957 161.22705078 C-61.81415935 164.33139819 -61.60482965 167.43627638 -61.3918457 170.54736328 C-61.2725237 173.19603449 -61.2725237 173.19603449 -60.1105957 175.22705078 C-59.4505957 175.22705078 -58.7905957 175.22705078 -58.1105957 175.22705078 C-58.1518457 176.17580078 -58.1930957 177.12455078 -58.2355957 178.10205078 C-58.25544078 182.93432736 -57.16833767 187.53332083 -56.1105957 192.22705078 C-55.1205957 192.22705078 -54.1305957 192.22705078 -53.1105957 192.22705078 C-53.1518457 193.09330078 -53.1930957 193.95955078 -53.2355957 194.85205078 C-53.10601849 198.35063546 -52.35039914 200.97256675 -51.1105957 204.22705078 C-50.4505957 204.22705078 -49.7905957 204.22705078 -49.1105957 204.22705078 C-49.1105957 205.87705078 -49.1105957 207.52705078 -49.1105957 209.22705078 C-48.1205957 209.22705078 -47.1305957 209.22705078 -46.1105957 209.22705078 C-45.1205957 212.69205078 -45.1205957 212.69205078 -44.1105957 216.22705078 C-43.4505957 216.22705078 -42.7905957 216.22705078 -42.1105957 216.22705078 C-42.1105957 216.88705078 -42.1105957 217.54705078 -42.1105957 218.22705078 C-41.1205957 218.22705078 -40.1305957 218.22705078 -39.1105957 218.22705078 C-39.0074707 219.01080078 -38.9043457 219.79455078 -38.7980957 220.60205078 C-38.33464549 223.55750259 -38.33464549 223.55750259 -35.1105957 225.22705078 C-34.1205957 225.22705078 -33.1305957 225.22705078 -32.1105957 225.22705078 C-32.1105957 225.88705078 -32.1105957 226.54705078 -32.1105957 227.22705078 C-31.4505957 227.22705078 -30.7905957 227.22705078 -30.1105957 227.22705078 C-30.1105957 228.21705078 -30.1105957 229.20705078 -30.1105957 230.22705078 C-27.8005957 230.88705078 -25.4905957 231.54705078 -23.1105957 232.22705078 C-23.1105957 233.21705078 -23.1105957 234.20705078 -23.1105957 235.22705078 C-14.32011497 237.87404428 -6.25784862 239.67900712 2.96362305 240.05126953 C5.43632091 240.19982948 7.52773683 240.52027438 9.8894043 241.22705078 C9.8894043 240.56705078 9.8894043 239.90705078 9.8894043 239.22705078 C10.9515918 239.26185547 12.0137793 239.29666016 13.1081543 239.33251953 C20.75106952 239.50689979 26.85313838 239.54604414 33.8894043 236.22705078 C34.8587793 236.04142578 35.8281543 235.85580078 36.8269043 235.66455078 C37.5075293 235.52017578 38.1881543 235.37580078 38.8894043 235.22705078 C39.2194043 234.56705078 39.5494043 233.90705078 39.8894043 233.22705078 C40.8794043 232.89705078 41.8694043 232.56705078 42.8894043 232.22705078 C42.8894043 231.56705078 42.8894043 230.90705078 42.8894043 230.22705078 C44.2094043 229.89705078 45.5294043 229.56705078 46.8894043 229.22705078 C46.8894043 228.56705078 46.8894043 227.90705078 46.8894043 227.22705078 C47.8794043 227.22705078 48.8694043 227.22705078 49.8894043 227.22705078 C49.8894043 226.56705078 49.8894043 225.90705078 49.8894043 225.22705078 C50.5494043 225.22705078 51.2094043 225.22705078 51.8894043 225.22705078 C51.8894043 224.56705078 51.8894043 223.90705078 51.8894043 223.22705078 C52.5494043 223.22705078 53.2094043 223.22705078 53.8894043 223.22705078 C53.8894043 222.23705078 53.8894043 221.24705078 53.8894043 220.22705078 C54.8794043 220.22705078 55.8694043 220.22705078 56.8894043 220.22705078 C59.25920443 217.2732758 59.25920443 217.2732758 58.8894043 213.22705078 C59.8794043 213.22705078 60.8694043 213.22705078 61.8894043 213.22705078 C64.25920443 210.2732758 64.25920443 210.2732758 63.8894043 206.22705078 C64.5494043 206.22705078 65.2094043 206.22705078 65.8894043 206.22705078 C65.8894043 204.57705078 65.8894043 202.92705078 65.8894043 201.22705078 C66.8794043 200.89705078 67.8694043 200.56705078 68.8894043 200.22705078 C71.9151722 193.21561619 73.37529169 185.81021178 73.8894043 178.22705078 C74.5494043 178.22705078 75.2094043 178.22705078 75.8894043 178.22705078 C75.94999023 177.52837891 76.01057617 176.82970703 76.07299805 176.10986328 C76.15678711 175.19978516 76.24057617 174.28970703 76.3269043 173.35205078 C76.4487207 171.99466797 76.4487207 171.99466797 76.57299805 170.60986328 C76.8894043 168.22705078 76.8894043 168.22705078 77.8894043 166.22705078 C78.02992693 164.72548674 78.11512015 163.21852802 78.1706543 161.71142578 C78.22600342 160.33978271 78.22600342 160.33978271 78.2824707 158.94042969 C78.31775879 157.96251465 78.35304688 156.98459961 78.3894043 155.97705078 C78.6397736 149.58387588 78.93781082 143.22414794 79.5144043 136.85205078 C80.03561378 129.98674463 79.57718203 123.2646535 79.04223633 116.41894531 C78.87939267 114.08346547 78.76702332 111.74962361 78.66674805 109.41064453 C78.28545778 100.54717968 77.68160089 91.94443421 75.8894043 83.22705078 C75.2294043 83.22705078 74.5694043 83.22705078 73.8894043 83.22705078 C73.83333008 82.30085938 73.83333008 82.30085938 73.77612305 81.35595703 C73.3008998 75.23396347 72.04669276 69.96027936 69.8894043 64.22705078 C69.5594043 63.23705078 69.2294043 62.24705078 68.8894043 61.22705078 C68.2294043 61.22705078 67.5694043 61.22705078 66.8894043 61.22705078 C66.4872168 59.71111328 66.4872168 59.71111328 66.0769043 58.16455078 C64.97919691 54.34203781 63.61161951 50.81499914 61.8894043 47.22705078 C61.2294043 46.89705078 60.5694043 46.56705078 59.8894043 46.22705078 C58.84132389 44.25182232 57.83736319 42.25223569 56.8894043 40.22705078 C56.2294043 40.22705078 55.5694043 40.22705078 54.8894043 40.22705078 C54.3944043 39.23705078 54.3944043 39.23705078 53.8894043 38.22705078 C53.2294043 38.22705078 52.5694043 38.22705078 51.8894043 38.22705078 C51.6419043 37.60830078 51.3944043 36.98955078 51.1394043 36.35205078 C49.66694367 33.84886772 48.47911592 33.39659797 45.8894043 32.22705078 C45.3944043 31.23705078 45.3944043 31.23705078 44.8894043 30.22705078 C42.49256903 29.08547516 42.49256903 29.08547516 39.6394043 28.10205078 C38.20854492 27.57224609 38.20854492 27.57224609 36.7487793 27.03173828 C33.967602 26.24905724 31.75866154 26.06997465 28.8894043 26.22705078 C28.3944043 24.74205078 28.3944043 24.74205078 27.8894043 23.22705078 C26.71571289 23.13617188 26.71571289 23.13617188 25.51831055 23.04345703 C24.50639648 22.95966797 23.49448242 22.87587891 22.4519043 22.78955078 C20.93790039 22.66773437 20.93790039 22.66773437 19.39331055 22.54345703 C16.8894043 22.22705078 16.8894043 22.22705078 15.8894043 21.22705078 C13.2120905 21.12723864 10.56636255 21.08825203 7.8894043 21.10205078 C7.13916992 21.09818359 6.38893555 21.09431641 5.6159668 21.09033203 C1.95334313 20.75029537 1.95334313 20.75029537 -1.1105957 22.22705078 Z " fill="#CA3E34" transform="translate(198.110595703125,93.77294921875)"/>
<path d="M0 0 C0.99 0 1.98 0 3 0 C3.67528223 1.57967807 4.33989694 3.16391903 5 4.75 C5.37125 5.63171875 5.7425 6.5134375 6.125 7.421875 C7 10 7 10 7 14 C7.99 14 8.98 14 10 14 C10 15.65 10 17.3 10 19 C10.66 19 11.32 19 12 19 C12.99 23.62 13.98 28.24 15 33 C15.66 33 16.32 33 17 33 C17.06058594 33.71027344 17.12117188 34.42054688 17.18359375 35.15234375 C17.26738281 36.07144531 17.35117187 36.99054688 17.4375 37.9375 C17.51871094 38.85402344 17.59992188 39.77054688 17.68359375 40.71484375 C17.76044976 42.96159732 17.76044976 42.96159732 19 44 C19.28562763 46.74293196 19.44839273 49.48608838 19.62109375 52.23828125 C19.83007975 54.94376264 19.83007975 54.94376264 21.00750732 56.89100647 C22.13380241 59.28432293 22.25338671 60.87280396 22.25878906 63.50561523 C22.26509338 64.39010849 22.27139771 65.27460175 22.27789307 66.18589783 C22.2738446 67.13388748 22.26979614 68.08187714 22.265625 69.05859375 C22.26753845 70.03989761 22.2694519 71.02120148 22.27142334 72.03224182 C22.27278325 74.10588843 22.26910036 76.17954361 22.26074219 78.25317383 C22.2500515 81.42223313 22.26063826 84.59072408 22.2734375 87.75976562 C22.27211565 89.77604292 22.26955272 91.79231985 22.265625 93.80859375 C22.26967346 94.75455917 22.27372192 95.7005246 22.27789307 96.67515564 C22.24524327 101.27223081 22.0613098 104.79760064 20 109 C19.72123482 111.0959986 19.51411256 113.20262611 19.375 115.3125 C19.30023438 116.38113281 19.22546875 117.44976562 19.1484375 118.55078125 C19.09945313 119.35902344 19.05046875 120.16726563 19 121 C18.34 121 17.68 121 17 121 C17.33 121.99 17.66 122.98 18 124 C17.42307692 130.57692308 17.42307692 130.57692308 15 133 C14.38943913 135.02213278 13.85636005 137.06827978 13.375 139.125 C13.11460937 140.22070312 12.85421875 141.31640625 12.5859375 142.4453125 C12.29589844 143.70988281 12.29589844 143.70988281 12 145 C11.34 145 10.68 145 10 145 C10 146.65 10 148.3 10 150 C9.01 150 8.02 150 7 150 C7 148.35 7 146.7 7 145 C7.66 145 8.32 145 9 145 C9.86671164 140.91630459 10.48301792 136.82113885 11.0625 132.6875 C11.23910156 131.43324219 11.41570312 130.17898438 11.59765625 128.88671875 C11.73042969 127.93410156 11.86320312 126.98148437 12 126 C12.66 126 13.32 126 14 126 C14 125.34 14 124.68 14 124 C14.66 124 15.32 124 16 124 C16 120.04 16 116.08 16 112 C16.66 112 17.32 112 18 112 C17.01 81.805 17.01 81.805 16 51 C15.34 51 14.68 51 14 51 C14.14084796 49.20793453 14.28783701 47.41635083 14.4375 45.625 C14.51871094 44.62726563 14.59992188 43.62953125 14.68359375 42.6015625 C15 40 15 40 16 38 C15.34 38 14.68 38 14 38 C13.67 35.69 13.34 33.38 13 31 C12.34 31 11.68 31 11 31 C10.34 27.04 9.68 23.08 9 19 C7.68 18.67 6.36 18.34 5 18 C2.56684368 14.11421304 1.57365133 9.54771913 2 5 C1.34 5 0.68 5 0 5 C0 3.35 0 1.7 0 0 Z " fill="#E7ABA1" transform="translate(310,141)"/>
<path d="M0 0 C0 1.65 0 3.3 0 5 C-0.99 5 -1.98 5 -3 5 C-3 5.66 -3 6.32 -3 7 C-3.66 7 -4.32 7 -5 7 C-5 8.65 -5 10.3 -5 12 C-5.66 12 -6.32 12 -7 12 C-7 13.65 -7 15.3 -7 17 C-7.99 17 -8.98 17 -10 17 C-10 18.32 -10 19.64 -10 21 C-10.66 21 -11.32 21 -12 21 C-12 22.65 -12 24.3 -12 26 C-12.99 26 -13.98 26 -15 26 C-15 28.31 -15 30.62 -15 33 C-15.66 33 -16.32 33 -17 33 C-17 35.31 -17 37.62 -17 40 C-17.66 40 -18.32 40 -19 40 C-19 43.3 -19 46.6 -19 50 C-19.99 50 -20.98 50 -22 50 C-21.98839844 50.61488281 -21.97679688 51.22976562 -21.96484375 51.86328125 C-21.95582031 52.67152344 -21.94679688 53.47976562 -21.9375 54.3125 C-21.92589844 55.11300781 -21.91429688 55.91351563 -21.90234375 56.73828125 C-22 59 -22 59 -23 62 C-23.09330602 63.84523255 -23.12792446 65.69367025 -23.12939453 67.54125977 C-23.13254669 68.67576065 -23.13569885 69.81026154 -23.13894653 70.97914124 C-23.1369223 72.20418869 -23.13489807 73.42923615 -23.1328125 74.69140625 C-23.13376923 75.94759262 -23.13472595 77.20377899 -23.13571167 78.49803162 C-23.13639264 81.15521684 -23.13504479 83.81231029 -23.13037109 86.46948242 C-23.12466818 89.87819623 -23.12795851 93.2868314 -23.13394356 96.69554234 C-23.13842124 99.94416649 -23.13528858 103.19278107 -23.1328125 106.44140625 C-23.13483673 107.66847794 -23.13686096 108.89554962 -23.13894653 110.1598053 C-23.13579437 111.29115402 -23.13264221 112.42250275 -23.12939453 113.58813477 C-23.12859894 114.5872438 -23.12780334 115.58635284 -23.12698364 116.61573792 C-23.15814387 119.01622203 -23.15814387 119.01622203 -22 121 C-21.95977609 123.3329866 -21.95679753 125.66706666 -22 128 C-21.01 128 -20.02 128 -19 128 C-19 131.3 -19 134.6 -19 138 C-18.34 138 -17.68 138 -17 138 C-17 140.31 -17 142.62 -17 145 C-16.34 145 -15.68 145 -15 145 C-15 147.31 -15 149.62 -15 152 C-14.01 152 -13.02 152 -12 152 C-12 153.65 -12 155.3 -12 157 C-11.34 157 -10.68 157 -10 157 C-10 158.32 -10 159.64 -10 161 C-9.01 161 -8.02 161 -7 161 C-7 162.65 -7 164.3 -7 166 C-6.34 166 -5.68 166 -5 166 C-5 167.65 -5 169.3 -5 171 C-4.34 171 -3.68 171 -3 171 C-3 171.66 -3 172.32 -3 173 C-2.01 173 -1.02 173 0 173 C0 174.65 0 176.3 0 178 C0.66 178 1.32 178 2 178 C2 178.66 2 179.32 2 180 C2.66 180 3.32 180 4 180 C4 180.99 4 181.98 4 183 C4.99 183 5.98 183 7 183 C7 183.66 7 184.32 7 185 C7.66 185 8.32 185 9 185 C9 185.66 9 186.32 9 187 C10.98 187.33 12.96 187.66 15 188 C15.33 189.98 15.66 191.96 16 194 C17.65 194.33 19.3 194.66 21 195 C21 196.32 21 197.64 21 199 C22.65 199.33 24.3 199.66 26 200 C26 201.32 26 202.64 26 204 C23.03 203.01 23.03 203.01 20 202 C20 201.34 20 200.68 20 200 C18.5459375 199.071875 18.5459375 199.071875 17.0625 198.125 C13.68195968 195.77931896 13.84326767 195.61400429 13 192 C10.50965614 190.70339566 10.50965614 190.70339566 8 190 C8 189.01 8 188.02 8 187 C7.34 187 6.68 187 6 187 C6 186.34 6 185.68 6 185 C5.01 185 4.02 185 3 185 C3 184.34 3 183.68 3 183 C2.34 182.67 1.68 182.34 1 182 C0.690625 181.175 0.38125 180.35 0.0625 179.5 C-0.288125 178.675 -0.63875 177.85 -1 177 C-1.99 176.67 -2.98 176.34 -4 176 C-5.31640625 173.78515625 -5.31640625 173.78515625 -6.5625 171.0625 C-8.32437611 167.21922924 -8.32437611 167.21922924 -11 164 C-11.8473813 161.69088595 -12.52421344 159.35525327 -13.21875 156.99609375 C-13.81628991 154.81272599 -13.81628991 154.81272599 -16 154 C-16 152.35 -16 150.7 -16 149 C-16.66 148.67 -17.32 148.34 -18 148 C-18 146.02 -18 144.04 -18 142 C-18.66 141.67 -19.32 141.34 -20 141 C-20 139.02 -20 137.04 -20 135 C-20.66 135 -21.32 135 -22 135 C-23.26237731 132.47524538 -23.09856404 130.68799534 -23.0625 127.875 C-23.05347656 126.96492188 -23.04445313 126.05484375 -23.03515625 125.1171875 C-23.02355469 124.41851562 -23.01195313 123.71984375 -23 123 C-23.66 122.67 -24.32 122.34 -25 122 C-25.28986978 119.57644958 -25.46796716 117.24499131 -25.5625 114.8125 C-25.79947272 109.48095639 -25.79947272 109.48095639 -26.515625 104.203125 C-27.23427512 99.45076133 -27.19094138 94.73745584 -27.1875 89.9375 C-27.18741943 88.89070068 -27.18733887 87.84390137 -27.18725586 86.76538086 C-26.98133035 57.98133035 -26.98133035 57.98133035 -24 55 C-23.79160985 53.35892758 -23.63248275 51.71143707 -23.5 50.0625 C-23.10977702 45.21955403 -23.10977702 45.21955403 -22 43 C-21.34 43 -20.68 43 -20 43 C-20.020625 41.865625 -20.04125 40.73125 -20.0625 39.5625 C-20 36 -20 36 -19 35 C-18.63239269 32.67182036 -18.29758419 30.3381615 -18 28 C-17.34 28 -16.68 28 -16 28 C-16 26.68 -16 25.36 -16 24 C-15.34 23.67 -14.68 23.34 -14 23 C-12.93772661 20.79437235 -12.93772661 20.79437235 -12 18.1875 C-10.80588472 15.02962483 -9.5633367 11.99406895 -8 9 C-7.34 9 -6.68 9 -6 9 C-5.855625 8.401875 -5.71125 7.80375 -5.5625 7.1875 C-3.71428571 0 -3.71428571 0 0 0 Z " fill="#F7C9C3" transform="translate(107,134)"/>
<path d="M0 0 C0.66 0.66 1.32 1.32 2 2 C1.57005062 3.95130871 1.12677667 5.90179461 0.58203125 7.82421875 C-0.23078212 10.86272241 -0.61018727 13.88149819 -1 17 C-1.66 17 -2.32 17 -3 17 C-3.06058594 17.97582031 -3.12117187 18.95164063 -3.18359375 19.95703125 C-3.26738281 21.22933594 -3.35117188 22.50164062 -3.4375 23.8125 C-3.51871094 25.07707031 -3.59992188 26.34164062 -3.68359375 27.64453125 C-4 31 -4 31 -5 34 C-5.09298327 35.77339712 -5.12792028 37.55009523 -5.12939453 39.32592773 C-5.13254669 40.41393173 -5.13569885 41.50193573 -5.13894653 42.62290955 C-5.1369223 43.79793533 -5.13489807 44.97296112 -5.1328125 46.18359375 C-5.13376923 47.39064468 -5.13472595 48.59769562 -5.13571167 49.84132385 C-5.13639267 52.39592542 -5.13454396 54.95052871 -5.13037109 57.50512695 C-5.1250264 61.41817106 -5.13031644 65.33110013 -5.13671875 69.24414062 C-5.13605786 71.72395859 -5.13477648 74.20377648 -5.1328125 76.68359375 C-5.13483673 77.85659531 -5.13686096 79.02959686 -5.13894653 80.23814392 C-5.13421829 81.87487816 -5.13421829 81.87487816 -5.12939453 83.54467773 C-5.12859894 84.50381577 -5.12780334 85.4629538 -5.12698364 86.45115662 C-5.00995487 88.80018375 -4.61600472 90.74291418 -4 93 C-3.77882441 95.4138176 -3.59427758 97.83114597 -3.4375 100.25 C-3.35371094 101.51328125 -3.26992187 102.7765625 -3.18359375 104.078125 C-3.12300781 105.04234375 -3.06242188 106.0065625 -3 107 C-2.34 107 -1.68 107 -1 107 C-0.63495397 108.58086048 -0.28339494 110.16483907 0.0625 111.75 C0.25972656 112.63171875 0.45695313 113.5134375 0.66015625 114.421875 C0.99825872 116.98679028 0.81158635 118.57091639 0 121 C0 120.34 0 119.68 0 119 C-0.66 119 -1.32 119 -2 119 C-2.33 118.01 -2.66 117.02 -3 116 C-3.66 115.67 -4.32 115.34 -5 115 C-5 111.04 -5 107.08 -5 103 C-5.66 103 -6.32 103 -7 103 C-11.29894181 90.10317456 -9.11784408 73.42877 -9.0625 60 C-9.05747123 57.85677189 -9.05291078 55.71354262 -9.04882812 53.5703125 C-9.0379402 48.38017927 -9.02075275 43.19010278 -9 38 C-8.34 38 -7.68 38 -7 38 C-7.01160156 36.73285156 -7.02320313 35.46570313 -7.03515625 34.16015625 C-7.04454419 32.46093899 -7.05364331 30.76172011 -7.0625 29.0625 C-7.07087891 28.23169922 -7.07925781 27.40089844 -7.08789062 26.54492188 C-7.14732969 11.26908247 -7.14732969 11.26908247 -4.52758789 8.37133789 C-3.77143188 7.69252563 -3.77143188 7.69252563 -3 7 C-1.69351129 4.6773534 -0.84692572 2.54077717 0 0 Z " fill="#D5847C" transform="translate(141,162)"/>
<path d="M0 0 C0.66 0 1.32 0 2 0 C2 1.32 2 2.64 2 4 C2.66 4 3.32 4 4 4 C4 7.3 4 10.6 4 14 C4.99 14 5.98 14 7 14 C7 16.97 7 19.94 7 23 C7.66 23 8.32 23 9 23 C9 27.95 9 32.9 9 38 C9.66 38 10.32 38 11 38 C11 56.81 11 75.62 11 95 C10.34 95 9.68 95 9 95 C9 99.62 9 104.24 9 109 C8.34 109 7.68 109 7 109 C7 111.97 7 114.94 7 118 C6.01 118 5.02 118 4 118 C4 121.3 4 124.6 4 128 C3.34 128 2.68 128 2 128 C2 130.31 2 132.62 2 135 C1.34 135 0.68 135 0 135 C0 136.65 0 138.3 0 140 C-0.99 140 -1.98 140 -3 140 C-3.495 140.99 -3.495 140.99 -4 142 C-4 140.35 -4 138.7 -4 137 C-3.34 136.67 -2.68 136.34 -2 136 C0.70711392 128.89382597 2.48650116 121.44136929 4 114 C4.66 114 5.32 114 6 114 C5.98839844 113.30132812 5.97679687 112.60265625 5.96484375 111.8828125 C5.95582031 110.97273438 5.94679688 110.06265625 5.9375 109.125 C5.92589844 108.22007812 5.91429687 107.31515625 5.90234375 106.3828125 C6 104 6 104 7 102 C7.14052264 100.49843596 7.22571585 98.99147724 7.28125 97.484375 C7.31814941 96.56994629 7.35504883 95.65551758 7.39306641 94.71337891 C7.42835449 93.73546387 7.46364258 92.75754883 7.5 91.75 C7.7503693 85.3568251 8.04840652 78.99709715 8.625 72.625 C9.14517582 65.77330916 8.69064816 59.06371351 8.15722656 52.23144531 C7.80478151 47.22935255 7.60896802 42.21590639 7.39306641 37.20629883 C7.23522147 33.9318779 7.04215763 31.1264729 6 28 C5.93259135 26.43881572 5.91485544 24.8749748 5.9375 23.3125 C5.94652344 22.50425781 5.95554687 21.69601563 5.96484375 20.86328125 C5.97644531 20.24839844 5.98804688 19.63351563 6 19 C5.34 19 4.68 19 4 19 C3.86722656 18.28972656 3.73445313 17.57945312 3.59765625 16.84765625 C3.42105469 15.92855469 3.24445313 15.00945312 3.0625 14.0625 C2.88847656 13.14597656 2.71445312 12.22945312 2.53515625 11.28515625 C2.22285012 9.04710156 2.22285012 9.04710156 1 8 C0.95919217 6.00041636 0.95745644 3.99954746 1 2 C0.34 1.67 -0.32 1.34 -1 1 C-0.67 0.67 -0.34 0.34 0 0 Z " fill="#F4B9B2" transform="translate(268,158)"/>
<path d="M0 0 C0.33 0 0.66 0 1 0 C1 3.3 1 6.6 1 10 C1.66 10 2.32 10 3 10 C3.90483637 15.36489595 4.12303662 20.50317457 4.0625 25.9375 C4.05798828 26.71673828 4.05347656 27.49597656 4.04882812 28.29882812 C4.03716908 30.19925268 4.01923877 32.09963706 4 34 C4.66 34 5.32 34 6 34 C6 40.27 6 46.54 6 53 C5.34 53 4.68 53 4 53 C4.08378906 54.01578125 4.16757812 55.0315625 4.25390625 56.078125 C4.8963178 64.51478745 5.03808789 72.56753225 4 81 C3.34 81 2.68 81 2 81 C2.33 81.99 2.66 82.98 3 84 C2.42307692 90.57692308 2.42307692 90.57692308 0 93 C-0.61056087 95.02213278 -1.14363995 97.06827978 -1.625 99.125 C-2.01558594 100.76855469 -2.01558594 100.76855469 -2.4140625 102.4453125 C-2.70410156 103.70988281 -2.70410156 103.70988281 -3 105 C-3.66 105 -4.32 105 -5 105 C-5 106.65 -5 108.3 -5 110 C-5.99 110 -6.98 110 -8 110 C-8 108.35 -8 106.7 -8 105 C-7.34 105 -6.68 105 -6 105 C-5.13328836 100.91630459 -4.51698208 96.82113885 -3.9375 92.6875 C-3.76089844 91.43324219 -3.58429688 90.17898438 -3.40234375 88.88671875 C-3.20318359 87.45779297 -3.20318359 87.45779297 -3 86 C-2.34 86 -1.68 86 -1 86 C-1 85.34 -1 84.68 -1 84 C-0.34 84 0.32 84 1 84 C1 80.04 1 76.08 1 72 C1.66 72 2.32 72 3 72 C2.01 41.805 2.01 41.805 1 11 C0.34 11 -0.32 11 -1 11 C-0.67 7.37 -0.34 3.74 0 0 Z " fill="#CA6158" transform="translate(325,181)"/>
<path d="M0 0 C3.65890261 0.45736283 7.0023505 1.00065979 10.5625 2 C15.60437559 3.33986851 20.73602222 3.47898929 25.92578125 3.75390625 C29 4 29 4 32 5 C32.33 4.67 32.66 4.34 33 4 C36.42470005 3.72962894 39.84239304 3.55370342 43.2734375 3.39453125 C46.94187048 3.53841351 46.94187048 3.53841351 50 2 C51.66617115 1.95936168 53.33388095 1.957279 55 2 C55 2.99 55 3.98 55 5 C49.93608038 7.46841642 46.29464458 8.37066139 40.5625 8.328125 C39.87873291 8.32625183 39.19496582 8.32437866 38.49047852 8.32244873 C37.05512561 8.31577248 35.61978952 8.30194717 34.18457031 8.28125 C32.00568397 8.25008131 29.82752495 8.24026708 27.6484375 8.234375 C21.33767814 8.19313645 15.25031222 7.95385529 9 7 C7.33371045 6.96454703 5.66590197 6.94951812 4 7 C3.67 6.34 3.34 5.68 3 5 C3.33 4.34 3.66 3.68 4 3 C2.68 2.67 1.36 2.34 0 2 C0 1.34 0 0.68 0 0 Z " fill="#BE4B42" transform="translate(175,329)"/>
<path d="M0 0 C-0.33 0.66 -0.66 1.32 -1 2 C-2.65 2 -4.3 2 -6 2 C-6 2.66 -6 3.32 -6 4 C-8.31 4 -10.62 4 -13 4 C-13 4.99 -13 5.98 -13 7 C-14.134375 7.144375 -15.26875 7.28875 -16.4375 7.4375 C-19.80777201 7.61171478 -19.80777201 7.61171478 -21 9 C-23.83972535 9.32351301 -26.68073737 9.5130429 -29.53125 9.71875 C-31.9413605 9.73385265 -31.9413605 9.73385265 -33 11 C-35.75572313 11.24368294 -38.48841167 11.42725898 -41.25 11.5625 C-42.06758789 11.6042334 -42.88517578 11.6459668 -43.72753906 11.68896484 C-55.07440219 12.23384557 -66.73041285 12.66607565 -78 11 C-78.66 10.34 -79.32 9.68 -80 9 C-78.77204712 8.970271 -78.77204712 8.970271 -77.51928711 8.93994141 C-62.71243426 8.56518921 -47.9697422 8.13058145 -33.22241211 6.66064453 C-28.44849353 6.18590011 -23.79824324 5.90220972 -19 6 C-19 5.34 -19 4.68 -19 4 C-15.535 3.505 -15.535 3.505 -12 3 C-12 2.34 -12 1.68 -12 1 C-7.95858806 0.36605303 -4.0934693 -0.12404452 0 0 Z " fill="#CB736D" transform="translate(262,348)"/>
<path d="M0 0 C6.14636297 6.14636297 2 17.30773013 2 26 C-40.57 26.495 -40.57 26.495 -84 27 C-81.69 29.64 -79.38 32.28 -77 35 C-77 35.99 -77 36.98 -77 38 C-77.66 38 -78.32 38 -79 38 C-79 37.01 -79 36.02 -79 35 C-79.78375 34.855625 -80.5675 34.71125 -81.375 34.5625 C-84 34 -84 34 -86 33 C-86 31.35 -86 29.7 -86 28 C-86.99 28 -87.98 28 -89 28 C-88 26 -88 26 -86 25 C-83.28420414 24.90683329 -80.59426102 24.874223 -77.87841797 24.88647461 C-77.03931885 24.88632858 -76.20021973 24.88618256 -75.33569336 24.8860321 C-72.55449869 24.88673032 -69.77337051 24.89451845 -66.9921875 24.90234375 C-65.06690508 24.90420825 -63.14162218 24.905632 -61.21633911 24.90663147 C-56.1429921 24.91045409 -51.06967361 24.92028221 -45.99633789 24.93133545 C-40.82178127 24.94155505 -35.64722005 24.94613027 -30.47265625 24.95117188 C-20.31508961 24.96190469 -10.15755163 24.97949945 0 25 C0 16.75 0 8.5 0 0 Z " fill="#BF655E" transform="translate(380,94)"/>
<path d="M0 0 C0.66 0 1.32 0 2 0 C2 1.32 2 2.64 2 4 C2.99 4 3.98 4 5 4 C5 5.65 5 7.3 5 9 C5.66 9 6.32 9 7 9 C7 10.65 7 12.3 7 14 C7.66 14 8.32 14 9 14 C9 14.66 9 15.32 9 16 C9.99 16 10.98 16 12 16 C12 17.65 12 19.3 12 21 C12.66 21 13.32 21 14 21 C14 21.66 14 22.32 14 23 C14.66 23 15.32 23 16 23 C16 23.99 16 24.98 16 26 C16.99 26 17.98 26 19 26 C19 26.66 19 27.32 19 28 C19.66 28 20.32 28 21 28 C21 28.66 21 29.32 21 30 C22.98 30.33 24.96 30.66 27 31 C27.33 32.98 27.66 34.96 28 37 C29.65 37.33 31.3 37.66 33 38 C33 39.32 33 40.64 33 42 C34.65 42.33 36.3 42.66 38 43 C38 44.32 38 45.64 38 47 C36.02 46.34 34.04 45.68 32 45 C32 44.34 32 43.68 32 43 C31.030625 42.38125 30.06125 41.7625 29.0625 41.125 C25.68195968 38.77931896 25.84326767 38.61400429 25 35 C22.50965614 33.70339566 22.50965614 33.70339566 20 33 C20 32.01 20 31.02 20 30 C19.34 30 18.68 30 18 30 C18 29.34 18 28.68 18 28 C17.01 28 16.02 28 15 28 C15 27.34 15 26.68 15 26 C14.34 25.67 13.68 25.34 13 25 C12.690625 24.175 12.38125 23.35 12.0625 22.5 C11.711875 21.675 11.36125 20.85 11 20 C10.01 19.67 9.02 19.34 8 19 C6.68359375 16.78515625 6.68359375 16.78515625 5.4375 14.0625 C3.67562389 10.21922924 3.67562389 10.21922924 1 7 C0.59952556 4.67724823 0.2602896 2.34260643 0 0 Z " fill="#F6C6BE" transform="translate(95,291)"/>
<path d="M0 0 C0.66 0 1.32 0 2 0 C1.98952637 1.18964355 1.97905273 2.37928711 1.96826172 3.60498047 C1.9317987 8.05921364 1.90900464 12.51343387 1.89013672 16.96777344 C1.88013867 18.88804348 1.86653579 20.80829853 1.84912109 22.72851562 C1.82459808 25.50394411 1.81345469 28.27916965 1.8046875 31.0546875 C1.79436493 31.8998996 1.78404236 32.74511169 1.77340698 33.61593628 C1.77216998 40.33145901 2.83839395 46.58768939 4.54586792 53.07345581 C5.25983449 56.10228423 5.36153299 59.14936617 5.5625 62.25 C5.64628906 63.51328125 5.73007813 64.7765625 5.81640625 66.078125 C5.87699219 67.04234375 5.93757812 68.0065625 6 69 C6.66 69 7.32 69 8 69 C8.36504603 70.58086048 8.71660506 72.16483907 9.0625 73.75 C9.25972656 74.63171875 9.45695313 75.5134375 9.66015625 76.421875 C9.99825872 78.98679028 9.81158635 80.57091639 9 83 C9 82.34 9 81.68 9 81 C8.34 81 7.68 81 7 81 C6.67 80.01 6.34 79.02 6 78 C5.34 77.67 4.68 77.34 4 77 C4 73.04 4 69.08 4 65 C3.34 65 2.68 65 2 65 C-2.29894181 52.10317456 -0.11784408 35.42877 -0.0625 22 C-0.05747123 19.85677189 -0.05291078 17.71354262 -0.04882812 15.5703125 C-0.0379402 10.38017927 -0.02075275 5.19010278 0 0 Z " fill="#C96159" transform="translate(132,200)"/>
<path d="M0 0 C0 1.65 0 3.3 0 5 C-0.99 5 -1.98 5 -3 5 C-3 5.66 -3 6.32 -3 7 C-3.66 7 -4.32 7 -5 7 C-5 8.65 -5 10.3 -5 12 C-5.66 12 -6.32 12 -7 12 C-7 13.65 -7 15.3 -7 17 C-7.99 17 -8.98 17 -10 17 C-10 18.32 -10 19.64 -10 21 C-10.66 21 -11.32 21 -12 21 C-12 22.65 -12 24.3 -12 26 C-12.99 26 -13.98 26 -15 26 C-15 28.31 -15 30.62 -15 33 C-15.66 33 -16.32 33 -17 33 C-17 35.31 -17 37.62 -17 40 C-17.66 40 -18.32 40 -19 40 C-19 43.3 -19 46.6 -19 50 C-19.99 50 -20.98 50 -22 50 C-21.97679688 50.61488281 -21.95359375 51.22976562 -21.9296875 51.86328125 C-21.91164063 52.67152344 -21.89359375 53.47976562 -21.875 54.3125 C-21.85179688 55.11300781 -21.82859375 55.91351563 -21.8046875 56.73828125 C-22 59 -22 59 -24 62 C-23.8595017 59.2079699 -23.71284617 56.41650204 -23.5625 53.625 C-23.52318359 52.8309375 -23.48386719 52.036875 -23.44335938 51.21875 C-23.11328125 45.2265625 -23.11328125 45.2265625 -22 43 C-21.34 43 -20.68 43 -20 43 C-20.020625 41.865625 -20.04125 40.73125 -20.0625 39.5625 C-20 36 -20 36 -19 35 C-18.63239269 32.67182036 -18.29758419 30.3381615 -18 28 C-17.34 28 -16.68 28 -16 28 C-16 26.68 -16 25.36 -16 24 C-15.34 23.67 -14.68 23.34 -14 23 C-12.93772661 20.79437235 -12.93772661 20.79437235 -12 18.1875 C-10.80588472 15.02962483 -9.5633367 11.99406895 -8 9 C-7.34 9 -6.68 9 -6 9 C-5.855625 8.401875 -5.71125 7.80375 -5.5625 7.1875 C-3.71428571 0 -3.71428571 0 0 0 Z " fill="#EDB3AD" transform="translate(107,134)"/>
<path d="M0 0 C0.85335937 0.23203125 1.70671875 0.4640625 2.5859375 0.703125 C4.625 1.75 4.625 1.75 5.4140625 3.859375 C5.51847656 4.79523438 5.51847656 4.79523438 5.625 5.75 C6.285 5.75 6.945 5.75 7.625 5.75 C7.625 6.41 7.625 7.07 7.625 7.75 C5.97732753 7.46890887 4.33186855 7.17481474 2.6875 6.875 C1.77097656 6.71257812 0.85445312 6.55015625 -0.08984375 6.3828125 C-0.84394531 6.17398438 -1.59804687 5.96515625 -2.375 5.75 C-2.87 4.76 -2.87 4.76 -3.375 3.75 C-5.92851113 3.31947737 -5.92851113 3.31947737 -8.875 3.1875 C-14.27871389 2.84628611 -14.27871389 2.84628611 -15.375 1.75 C-18.0523138 1.65018786 -20.69804175 1.61120125 -23.375 1.625 C-24.12523437 1.62113281 -24.87546875 1.61726563 -25.6484375 1.61328125 C-29.31106117 1.27324459 -29.31106117 1.27324459 -32.375 2.75 C-34.06108966 2.82205511 -35.75000659 2.83386068 -37.4375 2.8125 C-38.35660156 2.80347656 -39.27570313 2.79445313 -40.22265625 2.78515625 C-40.93292969 2.77355469 -41.64320313 2.76195313 -42.375 2.75 C-42.375 2.09 -42.375 1.43 -42.375 0.75 C-38.77525292 -0.05664189 -35.34843026 -0.42811328 -31.6640625 -0.56640625 C-30.04371094 -0.62924805 -30.04371094 -0.62924805 -28.390625 -0.69335938 C-27.27171875 -0.73267578 -26.1528125 -0.77199219 -25 -0.8125 C-23.33324219 -0.87727539 -23.33324219 -0.87727539 -21.6328125 -0.94335938 C-5.3701396 -1.55320961 -5.3701396 -1.55320961 0 0 Z " fill="#D1746B" transform="translate(229.375,114.25)"/>
<path d="M0 0 C0.33 0 0.66 0 1 0 C1.15130716 12.03732485 0.68944522 23.98395472 0 36 C-0.66 36 -1.32 36 -2 36 C-2 38.97 -2 41.94 -2 45 C-2.99 45 -3.98 45 -5 45 C-5 48.3 -5 51.6 -5 55 C-5.66 55 -6.32 55 -7 55 C-7 57.31 -7 59.62 -7 62 C-7.66 62 -8.32 62 -9 62 C-9 63.65 -9 65.3 -9 67 C-9.99 67 -10.98 67 -12 67 C-12.495 67.99 -12.495 67.99 -13 69 C-13 67.35 -13 65.7 -13 64 C-12.01 63.505 -12.01 63.505 -11 63 C-8.29288608 55.89382597 -6.51349884 48.44136929 -5 41 C-4.34 41 -3.68 41 -3 41 C-3.01160156 40.30132812 -3.02320313 39.60265625 -3.03515625 38.8828125 C-3.04417969 37.97273438 -3.05320312 37.06265625 -3.0625 36.125 C-3.07410156 35.22007812 -3.08570313 34.31515625 -3.09765625 33.3828125 C-3 31 -3 31 -2 29 C-1.85949268 27.41621458 -1.77429312 25.82731666 -1.71875 24.23828125 C-1.66267578 22.80645508 -1.66267578 22.80645508 -1.60546875 21.34570312 C-1.57066406 20.34474609 -1.53585937 19.34378906 -1.5 18.3125 C-1.28115592 12.14028643 -1.023188 6.09649518 0 0 Z " fill="#F9CEC8" transform="translate(277,231)"/>
<path d="M0 0 C0.66 0.66 1.32 1.32 2 2 C1.9765625 4.8203125 1.9765625 4.8203125 1.625 8.125 C1.45871094 9.76855469 1.45871094 9.76855469 1.2890625 11.4453125 C1.19367188 12.28835938 1.09828125 13.13140625 1 14 C0.34 14 -0.32 14 -1 14 C-0.67 14.99 -0.34 15.98 0 17 C-0.57692308 23.57692308 -0.57692308 23.57692308 -3 26 C-3.61056087 28.02213278 -4.14363995 30.06827978 -4.625 32.125 C-5.01558594 33.76855469 -5.01558594 33.76855469 -5.4140625 35.4453125 C-5.70410156 36.70988281 -5.70410156 36.70988281 -6 38 C-6.66 38 -7.32 38 -8 38 C-8 39.65 -8 41.3 -8 43 C-8.99 43 -9.98 43 -11 43 C-11 41.35 -11 39.7 -11 38 C-10.34 38 -9.68 38 -9 38 C-8.13328836 33.91630459 -7.51698208 29.82113885 -6.9375 25.6875 C-6.76089844 24.43324219 -6.58429688 23.17898438 -6.40234375 21.88671875 C-6.26957031 20.93410156 -6.13679688 19.98148437 -6 19 C-5.34 19 -4.68 19 -4 19 C-4 18.34 -4 17.68 -4 17 C-3.34 17 -2.68 17 -2 17 C-2 13.04 -2 9.08 -2 5 C-1.34 5 -0.68 5 0 5 C0 3.35 0 1.7 0 0 Z " fill="#E09F97" transform="translate(328,248)"/>
<path d="M0 0 C0.99 0 1.98 0 3 0 C3.20413361 5.73842251 3.27141454 10.60539047 1 16 C0.34 16 -0.32 16 -1 16 C-0.88244909 22.49631022 -0.75761669 28.99245106 -0.62768555 35.48852539 C-0.58433448 37.69910498 -0.54265954 39.90971809 -0.50268555 42.12036133 C-0.44498734 45.29518749 -0.38129138 48.46984486 -0.31640625 51.64453125 C-0.29969376 52.63524124 -0.28298126 53.62595123 -0.26576233 54.64668274 C-0.24581711 55.56741074 -0.22587189 56.48813873 -0.20532227 57.43676758 C-0.18977798 58.2472908 -0.1742337 59.05781403 -0.15821838 59.89289856 C-0.07190279 62.19146683 -0.07190279 62.19146683 1 65 C1.22451458 67.22574335 1.40782878 69.45581519 1.5625 71.6875 C1.64628906 72.86699219 1.73007813 74.04648437 1.81640625 75.26171875 C1.87699219 76.16535156 1.93757813 77.06898438 2 78 C1.34 78 0.68 78 0 78 C-1.97225849 70.59521721 -2.29223451 63.71640998 -2.265625 56.07421875 C-2.26753845 54.8502388 -2.2694519 53.62625885 -2.27142334 52.3651886 C-2.27277908 49.78585605 -2.2691255 47.20651654 -2.26074219 44.62719727 C-2.25006214 40.71029058 -2.26064443 36.79384542 -2.2734375 32.87695312 C-2.27211526 30.359374 -2.26955153 27.84179516 -2.265625 25.32421875 C-2.26967346 24.16758224 -2.27372192 23.01094574 -2.27789307 21.81925964 C-2.23560192 14.36483689 -1.45160551 7.3114669 0 0 Z " fill="#B5483F" transform="translate(85,184)"/>
<path d="M0 0 C3.37527775 4.50037034 3.37527775 4.50037034 3.35644531 8.53735352 C3.35944641 9.42830215 3.36244751 10.31925079 3.36553955 11.23719788 C3.35319275 12.19146164 3.34084595 13.1457254 3.328125 14.12890625 C3.32625183 15.11495346 3.32437866 16.10100067 3.32244873 17.1169281 C3.31573267 19.19899889 3.30182705 21.28105717 3.28125 23.36303711 C3.25008309 26.55399269 3.24027669 29.74445413 3.234375 32.93554688 C3.2252052 34.95833937 3.2148295 36.98112683 3.203125 39.00390625 C3.19887512 39.96019424 3.19462524 40.91648224 3.19024658 41.90174866 C3.17583527 43.23344337 3.17583527 43.23344337 3.16113281 44.59204102 C3.15089081 45.76308128 3.15089081 45.76308128 3.14044189 46.95777893 C3 49 3 49 2 52 C1.34 52 0.68 52 0 52 C0 47.38 0 42.76 0 38 C0.66 38 1.32 38 2 38 C2 31.73 2 25.46 2 19 C1.34 19 0.68 19 0 19 C0 12.73 0 6.46 0 0 Z " fill="#E8ACA4" transform="translate(329,196)"/>
<path d="M0 0 C1.98 0 3.96 0 6 0 C5.67 0.99 5.34 1.98 5 3 C4.34 3 3.68 3 3 3 C2.67 3.66 2.34 4.32 2 5 C1.34 5 0.68 5 0 5 C0 5.66 0 6.32 0 7 C-0.99 7 -1.98 7 -3 7 C-3 7.66 -3 8.32 -3 9 C-4.32 9 -5.64 9 -7 9 C-7 9.99 -7 10.98 -7 12 C-8.134375 12.268125 -9.26875 12.53625 -10.4375 12.8125 C-11.613125 13.204375 -12.78875 13.59625 -14 14 C-14.33 14.99 -14.66 15.98 -15 17 C-16.32 17 -17.64 17 -19 17 C-19 16.01 -19 15.02 -19 14 C-17.68 14 -16.36 14 -15 14 C-15 13.01 -15 12.02 -15 11 C-14.34 11 -13.68 11 -13 11 C-13 10.34 -13 9.68 -13 9 C-11.56570999 8.32645501 -10.12742943 7.66140299 -8.6875 7 C-7.88699219 6.62875 -7.08648437 6.2575 -6.26171875 5.875 C-4 5 -4 5 -1 5 C-0.67 3.35 -0.34 1.7 0 0 Z " fill="#DF9993" transform="translate(282,331)"/>
<path d="M0 0 C0.33 0 0.66 0 1 0 C1.17002218 5.01276286 1.33027263 10.02571785 1.48217773 15.0390625 C1.5349499 16.73803738 1.59021197 18.4369371 1.64819336 20.13574219 C2.00048158 30.51445961 2.01770685 40.64889195 1 51 C0.67 51 0.34 51 0 51 C-0.86592248 45.77522839 -1.14706882 40.75961685 -1.1328125 35.46875 C-1.13424759 34.27662903 -1.13424759 34.27662903 -1.13571167 33.0604248 C-1.13638841 31.38972901 -1.13456962 29.7190305 -1.13037109 28.04833984 C-1.12501565 25.50742626 -1.13033332 22.96668941 -1.13671875 20.42578125 C-1.13605788 18.79427045 -1.13477653 17.16275975 -1.1328125 15.53125 C-1.13483673 14.78000854 -1.13686096 14.02876709 -1.13894653 13.25476074 C-1.11910592 8.73769362 -0.73878929 4.45767996 0 0 Z " fill="#EDB8B1" transform="translate(134,197)"/>
<path d="M0 0 C1.93742341 -0.02703381 3.87495479 -0.04641125 5.8125 -0.0625 C6.89144531 -0.07410156 7.97039062 -0.08570313 9.08203125 -0.09765625 C12 0 12 0 15 1 C15.33 0.67 15.66 0.34 16 0 C18.01964199 -0.07244053 20.04167124 -0.08377188 22.0625 -0.0625 C23.16722656 -0.05347656 24.27195313 -0.04445313 25.41015625 -0.03515625 C26.26480469 -0.02355469 27.11945313 -0.01195312 28 0 C28 0.99 28 1.98 28 3 C18.76 3 9.52 3 0 3 C0 2.01 0 1.02 0 0 Z " fill="#F4DAD5" transform="translate(192,333)"/>
<path d="M0 0 C2.26849666 3.65172633 2.3895951 7.0127118 2.625 11.25 C2.69976562 12.51328125 2.77453125 13.7765625 2.8515625 15.078125 C2.90054688 16.04234375 2.94953125 17.0065625 3 18 C3.66 18 4.32 18 5 18 C5.36504603 19.58086048 5.71660506 21.16483907 6.0625 22.75 C6.35833984 24.07257813 6.35833984 24.07257813 6.66015625 25.421875 C6.99825872 27.98679028 6.81158635 29.57091639 6 32 C6 31.34 6 30.68 6 30 C5.34 30 4.68 30 4 30 C3.67 29.01 3.34 28.02 3 27 C2.34 26.67 1.68 26.34 1 26 C-0.57316773 17.52567194 -0.11423958 8.58066149 0 0 Z " fill="#E2A69F" transform="translate(135,251)"/>
<path d="M0 0 C0.99 0 1.98 0 3 0 C3.67528223 1.57967807 4.33989694 3.16391903 5 4.75 C5.37125 5.63171875 5.7425 6.5134375 6.125 7.421875 C7 10 7 10 7 14 C7.99 14 8.98 14 10 14 C10 16.31 10 18.62 10 21 C9.67 20.34 9.34 19.68 9 19 C8.35546875 18.87109375 7.7109375 18.7421875 7.046875 18.609375 C5 18 5 18 3.953125 16.328125 C2.63850477 12.44269189 1.6093799 9.16661439 2 5 C1.34 5 0.68 5 0 5 C0 3.35 0 1.7 0 0 Z " fill="#C85B56" transform="translate(310,141)"/>
<path d="M0 0 C-0.6 5.4 -0.6 5.4 -2.125 7.6875 C-6.42999689 10.70099782 -10.71842834 12.48014288 -16 12 C-13.78182541 7.4404189 -11.54594686 6.07532357 -7 4 C-6.67 3.34 -6.34 2.68 -6 2 C-3.85118612 0.75230162 -2.50320403 0 0 0 Z " fill="#BF463D" transform="translate(135,108)"/>
<path d="M0 0 C-0.33 0.66 -0.66 1.32 -1 2 C-2.65 2 -4.3 2 -6 2 C-6 2.66 -6 3.32 -6 4 C-8.31 4 -10.62 4 -13 4 C-13 4.99 -13 5.98 -13 7 C-14.7015625 7.2165625 -14.7015625 7.2165625 -16.4375 7.4375 C-19.80777201 7.61171478 -19.80777201 7.61171478 -21 9 C-22.99958364 9.04080783 -25.00045254 9.04254356 -27 9 C-26.67 8.01 -26.34 7.02 -26 6 C-23.69 6 -21.38 6 -19 6 C-19 5.34 -19 4.68 -19 4 C-15.535 3.505 -15.535 3.505 -12 3 C-12 2.34 -12 1.68 -12 1 C-7.95858806 0.36605303 -4.0934693 -0.12404452 0 0 Z " fill="#DB968E" transform="translate(262,348)"/>
<path d="M0 0 C0 0.66 0 1.32 0 2 C-0.85464844 2.27714844 -1.70929688 2.55429688 -2.58984375 2.83984375 C-3.69457031 3.20207031 -4.79929688 3.56429687 -5.9375 3.9375 C-7.03964844 4.29714844 -8.14179688 4.65679687 -9.27734375 5.02734375 C-11.88123475 5.73856668 -11.88123475 5.73856668 -13 7 C-15.01964199 7.07244053 -17.04167124 7.08377188 -19.0625 7.0625 C-20.16722656 7.05347656 -21.27195313 7.04445313 -22.41015625 7.03515625 C-23.69212891 7.01775391 -23.69212891 7.01775391 -25 7 C-22.23776722 4.23776722 -19.79293383 4.42143709 -16 4 C-16 3.34 -16 2.68 -16 2 C-10.61972975 0.80911014 -5.54708616 -0.2919519 0 0 Z " fill="#E19A93" transform="translate(171,96)"/>
<path d="M0 0 C0.99 0 1.98 0 3 0 C3.33 1.98 3.66 3.96 4 6 C5.65 6.33 7.3 6.66 9 7 C9 8.32 9 9.64 9 11 C10.65 11.33 12.3 11.66 14 12 C14 13.32 14 14.64 14 16 C12.02 15.34 10.04 14.68 8 14 C8 13.34 8 12.68 8 12 C7.05125 11.38125 6.1025 10.7625 5.125 10.125 C2.14757682 8.10035223 1.04290839 7.33730686 0 4 C0 2.68 0 1.36 0 0 Z " fill="#CF7870" transform="translate(119,322)"/>
<path d="M0 0 C0.66 0 1.32 0 2 0 C1.690625 0.515625 1.38125 1.03125 1.0625 1.5625 C-0.18486898 4.0765671 -0.18486898 4.0765671 -0.3125 7.375 C-1.1962285 12.03465935 -2.68126516 13.68126516 -6 17 C-6.66 17 -7.32 17 -8 17 C-7.938125 18.175625 -7.938125 18.175625 -7.875 19.375 C-8 22 -8 22 -10 24 C-10.39764263 25.98821313 -10.73775349 27.98944339 -11 30 C-11.66 30 -12.32 30 -13 30 C-13.33 30.66 -13.66 31.32 -14 32 C-14 30.68 -14 29.36 -14 28 C-13.34 28 -12.68 28 -12 28 C-12 25.69 -12 23.38 -12 21 C-11.01 21 -10.02 21 -9 21 C-9 19.35 -9 17.7 -9 16 C-8.34 16 -7.68 16 -7 16 C-7 14.68 -7 13.36 -7 12 C-6.01 12 -5.02 12 -4 12 C-4 10.35 -4 8.7 -4 7 C-3.34 7 -2.68 7 -2 7 C-2 5.35 -2 3.7 -2 2 C-1.34 2 -0.68 2 0 2 C0 1.34 0 0.68 0 0 Z " fill="#BD483E" transform="translate(104,139)"/>
<path d="M0 0 C0.99 0 1.98 0 3 0 C4.29243536 4.1196377 5.26252625 7.66831683 5 12 C5.66 12 6.32 12 7 12 C7 13.65 7 15.3 7 17 C7.99 17 8.98 17 10 17 C11.4606285 19.64738916 12 20.89448334 12 24 C11.01 24 10.02 24 9 24 C9 23.34 9 22.68 9 22 C8.34 22 7.68 22 7 22 C6.67 19.36 6.34 16.72 6 14 C5.34 14 4.68 14 4 14 C4 12.35 4 10.7 4 9 C3.34 9 2.68 9 2 9 C2 7.68 2 6.36 2 5 C1.34 5 0.68 5 0 5 C0 3.35 0 1.7 0 0 Z " fill="#EAB0AB" transform="translate(142,286)"/>
<path d="M0 0 C1.98 0.66 3.96 1.32 6 2 C6 2.66 6 3.32 6 4 C6.66 4 7.32 4 8 4 C8 4.99 8 5.98 8 7 C8.78375 7.144375 9.5675 7.28875 10.375 7.4375 C13 8 13 8 15 9 C15 9.99 15 10.98 15 12 C10.87248551 11.39301257 7.6678852 9.96189209 4 8 C4 6.68 4 5.36 4 4 C2.68 4 1.36 4 0 4 C0 2.68 0 1.36 0 0 Z " fill="#D1817A" transform="translate(160,317)"/>
<path d="M0 0 C1.32 0 2.64 0 4 0 C3.67 1.32 3.34 2.64 3 4 C2.34 4 1.68 4 1 4 C1 5.32 1 6.64 1 8 C0.34 8 -0.32 8 -1 8 C-1.2165625 9.60875 -1.2165625 9.60875 -1.4375 11.25 C-1.83749442 13.91662949 -2.27591924 16.41399729 -3 19 C-3.99 19 -4.98 19 -6 19 C-6 17.68 -6 16.36 -6 15 C-5.34 15 -4.68 15 -4 15 C-3.67 11.37 -3.34 7.74 -3 4 C-2.01 3.67 -1.02 3.34 0 3 C0 2.01 0 1.02 0 0 Z " fill="#E6AEA8" transform="translate(148,143)"/>
<path d="M0 0 C0.66 0 1.32 0 2 0 C2.33 0.66 2.66 1.32 3 2 C5.52733235 2.65555119 5.52733235 2.65555119 8 3 C7.896875 3.721875 7.79375 4.44375 7.6875 5.1875 C8.1279737 9.15176326 10.04291169 10.46535287 13 13 C13.66 13.33 14.32 13.66 15 14 C15 15.65 15 17.3 15 19 C14.67 18.34 14.34 17.68 14 17 C13.34 17 12.68 17 12 17 C12 16.34 12 15.68 12 15 C11.01 15 10.02 15 9 15 C9 14.01 9 13.02 9 12 C8.34 12 7.68 12 7 12 C7 11.34 7 10.68 7 10 C6.34 10 5.68 10 5 10 C5 8.35 5 6.7 5 5 C4.01 5 3.02 5 2 5 C2 4.34 2 3.68 2 3 C1.34 3 0.68 3 0 3 C0 2.01 0 1.02 0 0 Z " fill="#C04A42" transform="translate(102,302)"/>
<path d="M0 0 C2.31 0 4.62 0 7 0 C7 0.66 7 1.32 7 2 C19.87 2.495 19.87 2.495 33 3 C33 3.33 33 3.66 33 4 C20.625 4.495 20.625 4.495 8 5 C8 4.34 8 3.68 8 3 C5.36 3 2.72 3 0 3 C0 2.01 0 1.02 0 0 Z " fill="#D36D64" transform="translate(164,352)"/>
<path d="M0 0 C0.99 0 1.98 0 3 0 C3 1.65 3 3.3 3 5 C3.99 5 4.98 5 6 5 C6 5.66 6 6.32 6 7 C6.66 7 7.32 7 8 7 C8 8.65 8 10.3 8 12 C8.66 12 9.32 12 10 12 C10 13.65 10 15.3 10 17 C10.99 17 11.98 17 13 17 C13 19.31 13 21.62 13 24 C12.67 23.01 12.34 22.02 12 21 C11.34 21 10.68 21 10 21 C9.16235732 19.04350603 8.33000941 17.08474444 7.5 15.125 C7.0359375 14.03445312 6.571875 12.94390625 6.09375 11.8203125 C5 9 5 9 5 7 C4.01 6.67 3.02 6.34 2 6 C0.8125 2.9375 0.8125 2.9375 0 0 Z " fill="#F1BBB3" transform="translate(255,134)"/>
<path d="M0 0 C0.68100266 0.00141495 1.36200531 0.0028299 2.06364441 0.00428772 C4.22346522 0.00985327 6.38317964 0.02239922 8.54296875 0.03515625 C10.01367037 0.04017571 11.48437363 0.04473784 12.95507812 0.04882812 C16.54690915 0.05981137 20.13867855 0.07705203 23.73046875 0.09765625 C23.73046875 0.42765625 23.73046875 0.75765625 23.73046875 1.09765625 C17.12889659 2.04073799 10.70586075 2.17391854 4.05273438 2.06054688 C2.27873997 2.03847805 0.50427866 2.06386939 -1.26953125 2.09765625 C-1.59953125 2.42765625 -1.92953125 2.75765625 -2.26953125 3.09765625 C-3.95562091 3.16971136 -5.64453784 3.18151693 -7.33203125 3.16015625 C-8.25113281 3.15113281 -9.17023438 3.14210938 -10.1171875 3.1328125 C-10.82746094 3.12121094 -11.53773438 3.10960938 -12.26953125 3.09765625 C-12.26953125 2.43765625 -12.26953125 1.77765625 -12.26953125 1.09765625 C-8.12711709 0.09752451 -4.25472821 -0.01750917 0 0 Z " fill="#C47971" transform="translate(199.26953125,113.90234375)"/>
<path d="M0 0 C0.99 0 1.98 0 3 0 C3.20413361 5.73842251 3.27141454 10.60539047 1 16 C0.34 16 -0.32 16 -1 16 C-1.33 17.32 -1.66 18.64 -2 20 C-2.26404456 13.13484138 -1.25841946 6.74153283 0 0 Z " fill="#C14E44" transform="translate(85,184)"/>
<path d="M0 0 C0.33 0 0.66 0 1 0 C1 2.31 1 4.62 1 7 C0.34 7 -0.32 7 -1 7 C-1 9.31 -1 11.62 -1 14 C-1.66 14 -2.32 14 -3 14 C-3 15.65 -3 17.3 -3 19 C-3.99 19 -4.98 19 -6 19 C-6.33 19.66 -6.66 20.32 -7 21 C-7 19.35 -7 17.7 -7 16 C-6.34 15.67 -5.68 15.34 -5 15 C-4.23575009 12.88028799 -3.56121969 10.72773225 -2.9375 8.5625 C-1.06824147 2.13648294 -1.06824147 2.13648294 0 0 Z " fill="#F2BDB5" transform="translate(271,279)"/>
<path d="M0 0 C2.296875 -0.234375 2.296875 -0.234375 5 0 C6.765625 1.609375 6.765625 1.609375 8.25 3.75 C8.75015625 4.44609375 9.2503125 5.1421875 9.765625 5.859375 C10.96304137 7.93590719 11.55685058 9.65763876 12 12 C11.34 12 10.68 12 10 12 C10 11.01 10 10.02 10 9 C9.21625 8.855625 8.4325 8.71125 7.625 8.5625 C5 8 5 8 3 7 C3 5.35 3 3.7 3 2 C2.01 2 1.02 2 0 2 C0 1.34 0 0.68 0 0 Z " fill="#DB918A" transform="translate(291,120)"/>
<path d="M0 0 C0.66 0 1.32 0 2 0 C1.67 2.31 1.34 4.62 1 7 C0.34 7 -0.32 7 -1 7 C-1 7.99 -1 8.98 -1 10 C-1.99 10 -2.98 10 -4 10 C-4.66 12.31 -5.32 14.62 -6 17 C-7.32 17 -8.64 17 -10 17 C-10 16.01 -10 15.02 -10 14 C-9.01 14 -8.02 14 -7 14 C-6.34 11.69 -5.68 9.38 -5 7 C-4.01 7 -3.02 7 -2 7 C-1.34 4.69 -0.68 2.38 0 0 Z " fill="#EDB6AD" transform="translate(262,300)"/>
<path d="M0 0 C-0.66 2.31 -1.32 4.62 -2 7 C-2.66 7 -3.32 7 -4 7 C-4 8.65 -4 10.3 -4 12 C-4.99 12 -5.98 12 -7 12 C-7.32325181 7.87853942 -7.39022067 5.6324266 -5.1875 2.0625 C-3 0 -3 0 0 0 Z " fill="#E09F9A" transform="translate(317,293)"/>
<path d="M0 0 C0.66 0.66 1.32 1.32 2 2 C1.57005062 3.95130871 1.12677667 5.90179461 0.58203125 7.82421875 C-0.23078212 10.86272241 -0.61018727 13.88149819 -1 17 C-1.66 17 -2.32 17 -3 17 C-3.33 17.66 -3.66 18.32 -4 19 C-4 16.03 -4 13.06 -4 10 C-3.34 10 -2.68 10 -2 10 C-1.34 6.7 -0.68 3.4 0 0 Z " fill="#ECB9B5" transform="translate(141,162)"/>
<path d="M0 0 C0 0.66 0 1.32 0 2 C-0.66 2 -1.32 2 -2 2 C-2 2.66 -2 3.32 -2 4 C-2.99 4 -3.98 4 -5 4 C-5 4.99 -5 5.98 -5 7 C-5.66 7 -6.32 7 -7 7 C-7.66 8.32 -8.32 9.64 -9 11 C-8.8864371 9.35333797 -8.75882619 7.70763918 -8.625 6.0625 C-8.55539063 5.14597656 -8.48578125 4.22945312 -8.4140625 3.28515625 C-8.27742187 2.53105469 -8.14078125 1.77695313 -8 1 C-5.29120665 -0.35439668 -2.99066732 -0.06501451 0 0 Z " fill="#E19C97" transform="translate(161,132)"/>
<path d="M0 0 C0.99 0 1.98 0 3 0 C3 2.31 3 4.62 3 7 C2.01 7 1.02 7 0 7 C0.02320312 7.61488281 0.04640625 8.22976562 0.0703125 8.86328125 C0.08835937 9.67152344 0.10640625 10.47976562 0.125 11.3125 C0.14820312 12.11300781 0.17140625 12.91351563 0.1953125 13.73828125 C0 16 0 16 -2 19 C-1.8595017 16.2079699 -1.71284617 13.41650204 -1.5625 10.625 C-1.52318359 9.8309375 -1.48386719 9.036875 -1.44335938 8.21875 C-1.11328125 2.2265625 -1.11328125 2.2265625 0 0 Z " fill="#ECAFA8" transform="translate(85,177)"/>
<path d="M0 0 C0.99 0 1.98 0 3 0 C3 0.99 3 1.98 3 3 C2.34 3 1.68 3 1 3 C0.87625 4.0725 0.7525 5.145 0.625 6.25 C0.10356064 9.37863615 -0.40088254 11.33480424 -2 14 C-2.99 12.68 -3.98 11.36 -5 10 C-4.01 9.67 -3.02 9.34 -2 9 C-2.04125 7.88625 -2.0825 6.7725 -2.125 5.625 C-2 2 -2 2 0 0 Z " fill="#C95149" transform="translate(141,155)"/>
<path d="M0 0 C0.33 1.32 0.66 2.64 1 4 C-0.32 4 -1.64 4 -3 4 C-3.33 5.65 -3.66 7.3 -4 9 C-4.99 9 -5.98 9 -7 9 C-7 9.99 -7 10.98 -7 12 C-7.66 12 -8.32 12 -9 12 C-9 12.66 -9 13.32 -9 14 C-9.66 14 -10.32 14 -11 14 C-10.67 12.35 -10.34 10.7 -10 9 C-9.34 9 -8.68 9 -8 9 C-8 8.34 -8 7.68 -8 7 C-7.01 7 -6.02 7 -5 7 C-4.9175 6.401875 -4.835 5.80375 -4.75 5.1875 C-3.79544128 2.4033704 -2.42867729 1.56688858 0 0 Z " fill="#ECB4AF" transform="translate(118,120)"/>
<path d="M0 0 C5.94 0 11.88 0 18 0 C18.33 0.66 18.66 1.32 19 2 C15.38271465 3.20576178 12.73584804 2.95067406 8.9375 2.6875 C7.68839844 2.60886719 6.43929687 2.53023438 5.15234375 2.44921875 C2 2 2 2 0 0 Z " fill="#E5ABA3" transform="translate(182,357)"/>
<path d="M0 0 C0.99 0 1.98 0 3 0 C3 0.66 3 1.32 3 2 C2.34 2 1.68 2 1 2 C1 2.99 1 3.98 1 5 C0.01 5.33 -0.98 5.66 -2 6 C-2.33 6.66 -2.66 7.32 -3 8 C-5.31 7.67 -7.62 7.34 -10 7 C-9.67 6.34 -9.34 5.68 -9 5 C-7.35 5 -5.7 5 -4 5 C-3.67 4.01 -3.34 3.02 -3 2 C-2.01 2 -1.02 2 0 2 C0 1.34 0 0.68 0 0 Z " fill="#E4A49A" transform="translate(241,324)"/>
<path d="M0 0 C5.13503344 0.64187918 9.9943454 1.68272247 15 3 C15 3.33 15 3.66 15 4 C11.37 4.33 7.74 4.66 4 5 C4 4.34 4 3.68 4 3 C2.68 2.67 1.36 2.34 0 2 C0 1.34 0 0.68 0 0 Z " fill="#DC9B92" transform="translate(175,329)"/>
<path d="M0 0 C0.66 0 1.32 0 2 0 C1.6875 2.375 1.6875 2.375 1 5 C0.01 5.66 -0.98 6.32 -2 7 C-2.33 7.99 -2.66 8.98 -3 10 C-5.0625 11.1875 -5.0625 11.1875 -7 12 C-6.34 9.69 -5.68 7.38 -5 5 C-4.34 5 -3.68 5 -3 5 C-3 4.34 -3 3.68 -3 3 C-2.01 3 -1.02 3 0 3 C0 2.01 0 1.02 0 0 Z " fill="#E7B7AF" transform="translate(301,314)"/>
<path d="M0 0 C2.31 0 4.62 0 7 0 C7 0.99 7 1.98 7 3 C4.69 3 2.38 3 0 3 C0 3.66 0 4.32 0 5 C-1.65 5 -3.3 5 -5 5 C-4.67 4.01 -4.34 3.02 -4 2 C-2.68 2 -1.36 2 0 2 C0 1.34 0 0.68 0 0 Z " fill="#E3A19A" transform="translate(178,117)"/>
<path d="M0 0 C0 0.99 0 1.98 0 3 C-3.4019487 5.09350689 -6.05272412 5.17942163 -10 5 C-10 4.01 -10 3.02 -10 2 C-6.49223216 0.39644899 -3.85645121 -0.22036864 0 0 Z " fill="#D27F76" transform="translate(230,331)"/>
<path d="M0 0 C0.66 0.33 1.32 0.66 2 1 C1.67 2.32 1.34 3.64 1 5 C1.66 5 2.32 5 3 5 C3.33 6.65 3.66 8.3 4 10 C3.01 10 2.02 10 1 10 C1 9.01 1 8.02 1 7 C-0.65 7 -2.3 7 -4 7 C-3.67 6.01 -3.34 5.02 -3 4 C-2.01 4 -1.02 4 0 4 C0 2.68 0 1.36 0 0 Z " fill="#DA887D" transform="translate(145,338)"/>
<path d="M0 0 C0.33 0.99 0.66 1.98 1 3 C1.99 3 2.98 3 4 3 C4 3.66 4 4.32 4 5 C4.66 5 5.32 5 6 5 C6 5.66 6 6.32 6 7 C6.99 7 7.98 7 9 7 C9 8.65 9 10.3 9 12 C7.68 11.34 6.36 10.68 5 10 C5 9.01 5 8.02 5 7 C4.34 7 3.68 7 3 7 C3 6.34 3 5.68 3 5 C2.01 5 1.02 5 0 5 C0 3.35 0 1.7 0 0 Z " fill="#EBAEA7" transform="translate(110,314)"/>
<path d="M0 0 C2.97 0 5.94 0 9 0 C9 0.99 9 1.98 9 3 C9.66 3 10.32 3 11 3 C11 3.66 11 4.32 11 5 C7.7 4.34 4.4 3.68 1 3 C0.67 2.01 0.34 1.02 0 0 Z " fill="#EFB9B0" transform="translate(226,117)"/>
<path d="M0 0 C0.66 0 1.32 0 2 0 C1.65557106 2.49710982 1.15296001 3.82154665 -0.5 5.75 C-4.25557239 7.62778619 -7.87646606 7.23789619 -12 7 C-12 6.34 -12 5.68 -12 5 C-6.25 4.875 -6.25 4.875 -4 6 C-3.67 5.01 -3.34 4.02 -3 3 C-2.01 3 -1.02 3 0 3 C0 2.01 0 1.02 0 0 Z " fill="#BF473E" transform="translate(242,326)"/>
<path d="M0 0 C1.32 0.33 2.64 0.66 4 1 C3.34 3.31 2.68 5.62 2 8 C1.34 8 0.68 8 0 8 C0 8.66 0 9.32 0 10 C-0.99 10 -1.98 10 -3 10 C-3 9.34 -3 8.68 -3 8 C-2.34 8 -1.68 8 -1 8 C-0.67 5.36 -0.34 2.72 0 0 Z " fill="#E59E98" transform="translate(306,304)"/>
<path d="M0 0 C1.24546405 2.49092811 0.7767578 3.41080733 0 6 C-0.66 6 -1.32 6 -2 6 C-2 7.65 -2 9.3 -2 11 C-2.99 11 -3.98 11 -5 11 C-5 9.35 -5 7.7 -5 6 C-4.34 6 -3.68 6 -3 6 C-2.87625 5.195625 -2.7525 4.39125 -2.625 3.5625 C-2.41875 2.716875 -2.2125 1.87125 -2 1 C-1.34 0.67 -0.68 0.34 0 0 Z " fill="#EEB9B2" transform="translate(322,280)"/>
<path d="M0 0 C1.43739513 -0.02712066 2.87493863 -0.04645067 4.3125 -0.0625 C5.51326172 -0.07990234 5.51326172 -0.07990234 6.73828125 -0.09765625 C9 0 9 0 12 1 C12 1.99 12 2.98 12 4 C7.24792529 4.43200679 4.21789302 2.98489083 0 1 C0 0.67 0 0.34 0 0 Z " fill="#E39D95" transform="translate(149,348)"/>
<path d="M0 0 C1.32 1.65 2.64 3.3 4 5 C3.01 5.33 2.02 5.66 1 6 C0.67 6.66 0.34 7.32 0 8 C-0.66 7.67 -1.32 7.34 -2 7 C-2.33 8.32 -2.66 9.64 -3 11 C-3.66 10.34 -4.32 9.68 -5 9 C-4.34 7.68 -3.68 6.36 -3 5 C-2.01 5 -1.02 5 0 5 C0 3.35 0 1.7 0 0 Z " fill="#C34C42" transform="translate(268,293)"/>
<path d="M0 0 C-0.33 0.66 -0.66 1.32 -1 2 C-1.66 2 -2.32 2 -3 2 C-3 2.66 -3 3.32 -3 4 C-3.66 4 -4.32 4 -5 4 C-5 4.99 -5 5.98 -5 7 C-5.99 7 -6.98 7 -8 7 C-8 6.01 -8 5.02 -8 4 C-7.34 4 -6.68 4 -6 4 C-6.33 2.68 -6.66 1.36 -7 0 C-3.86650268 -1.04449911 -3.01031744 -0.93423645 0 0 Z " fill="#E5ACA4" transform="translate(169,125)"/>
<path d="M0 0 C0.99 0 1.98 0 3 0 C3 0.99 3 1.98 3 3 C-0.82989106 4.80230168 -3.78121808 5.19622241 -8 5 C-7.67 4.01 -7.34 3.02 -7 2 C-4.69 2 -2.38 2 0 2 C0 1.34 0 0.68 0 0 Z " fill="#D48C85" transform="translate(243,352)"/>
<path d="M0 0 C0.66 0 1.32 0 2 0 C3.41634833 2.83269666 3.3463005 5.47466438 3.5625 8.625 C3.64628906 9.81351562 3.73007813 11.00203125 3.81640625 12.2265625 C3.87699219 13.14179688 3.93757813 14.05703125 4 15 C3.34 15 2.68 15 2 15 C0.73694665 9.92523206 -0.27036084 5.27203646 0 0 Z " fill="#C7685C" transform="translate(83,247)"/>
<path d="M0 0 C0.99 0 1.98 0 3 0 C3 0.66 3 1.32 3 2 C4.65 2.33 6.3 2.66 8 3 C8 4.32 8 5.64 8 7 C6.02 6.34 4.04 5.68 2 5 C2 4.34 2 3.68 2 3 C1.34 2.67 0.68 2.34 0 2 C0 1.34 0 0.68 0 0 Z " fill="#E8A89D" transform="translate(125,331)"/>
<path d="M0 0 C0.66 0 1.32 0 2 0 C2 0.66 2 1.32 2 2 C2.99 2 3.98 2 5 2 C5.66 3.32 6.32 4.64 7 6 C5.35 6.33 3.7 6.66 2 7 C1.34 4.69 0.68 2.38 0 0 Z " fill="#E2A39C" transform="translate(154,310)"/>
<path d="M0 0 C0.99 0.33 1.98 0.66 3 1 C3 5.29 3 9.58 3 14 C2.67 14 2.34 14 2 14 C2 11.69 2 9.38 2 7 C1.34 7 0.68 7 0 7 C0 4.69 0 2.38 0 0 Z " fill="#E2A39B" transform="translate(326,184)"/>
<path d="M0 0 C0.99 0 1.98 0 3 0 C3 0.66 3 1.32 3 2 C3.66 2 4.32 2 5 2 C5.66 4.31 6.32 6.62 7 9 C6.34 9 5.68 9 5 9 C5 8.34 5 7.68 5 7 C4.01 7 3.02 7 2 7 C2 5.35 2 3.7 2 2 C1.34 2 0.68 2 0 2 C0 1.34 0 0.68 0 0 Z " fill="#E6A8A1" transform="translate(303,132)"/>
<path d="M0 0 C2.31 0 4.62 0 7 0 C7 0.66 7 1.32 7 2 C8.65 2 10.3 2 12 2 C12 2.33 12 2.66 12 3 C8.04 3 4.08 3 0 3 C0 2.01 0 1.02 0 0 Z " fill="#CD7C74" transform="translate(164,352)"/>
<path d="M0 0 C0.99 0 1.98 0 3 0 C3 0.99 3 1.98 3 3 C2.34 3 1.68 3 1 3 C1.061875 4.794375 1.061875 4.794375 1.125 6.625 C1.13851708 10.42329953 0.42009753 13.44975618 -1 17 C-1.33 17 -1.66 17 -2 17 C-2 14.69 -2 12.38 -2 10 C-1.34 10 -0.68 10 0 10 C0 6.7 0 3.4 0 0 Z " fill="#C85B54" transform="translate(272,276)"/>
<path d="M0 0 C0.66 0 1.32 0 2 0 C1.67 3.96 1.34 7.92 1 12 C0.34 12 -0.32 12 -1 12 C-1.33 12.99 -1.66 13.98 -2 15 C-2.04241723 12.66705225 -2.04092937 10.33297433 -2 8 C-1.67 7.67 -1.34 7.34 -1 7 C-0.63239269 4.67182036 -0.29758419 2.3381615 0 0 Z " fill="#F4C9C4" transform="translate(89,162)"/>
<path d="M0 0 C1.65 0 3.3 0 5 0 C5 0.66 5 1.32 5 2 C5.66 2 6.32 2 7 2 C7 2.99 7 3.98 7 5 C7.99 5.33 8.98 5.66 10 6 C9.01 6.66 8.02 7.32 7 8 C6.67 7.01 6.34 6.02 6 5 C5.34 5 4.68 5 4 5 C2.61767557 3.37373596 1.28062485 1.7074998 0 0 Z " fill="#E6ADA6" transform="translate(246,127)"/>
<path d="M0 0 C1.32 0.66 2.64 1.32 4 2 C3.67 3.65 3.34 5.3 3 7 C2.01 6.67 1.02 6.34 0 6 C0 5.34 0 4.68 0 4 C-1.32 3.67 -2.64 3.34 -4 3 C-2.68 2.67 -1.36 2.34 0 2 C0 1.34 0 0.68 0 0 Z " fill="#E19B91" transform="translate(243,120)"/>
<path d="M0 0 C0.66 0 1.32 0 2 0 C1.67 1.65 1.34 3.3 1 5 C0.34 5 -0.32 5 -1 5 C-1 5.66 -1 6.32 -1 7 C-2.65 7 -4.3 7 -6 7 C-5.67 6.01 -5.34 5.02 -5 4 C-4.01 4 -3.02 4 -2 4 C-2 3.34 -2 2.68 -2 2 C-1.34 2 -0.68 2 0 2 C0 1.34 0 0.68 0 0 Z " fill="#DD9890" transform="translate(250,317)"/>
<path d="M0 0 C4.75 0.875 4.75 0.875 7 2 C7 2.99 7 3.98 7 5 C2.25 4.125 2.25 4.125 0 3 C0 2.01 0 1.02 0 0 Z " fill="#E4A19D" transform="translate(168,324)"/>
<path d="M0 0 C0.33 0.66 0.66 1.32 1 2 C1.66 2 2.32 2 3 2 C3.33 4.97 3.66 7.94 4 11 C3.01 11.495 3.01 11.495 2 12 C2 10.35 2 8.7 2 7 C1.34 7 0.68 7 0 7 C0 4.69 0 2.38 0 0 Z " fill="#EECCC8" transform="translate(324,172)"/>
<path d="M0 0 C0 0.66 0 1.32 0 2 C-0.66 2 -1.32 2 -2 2 C-2 2.66 -2 3.32 -2 4 C-2.99 4 -3.98 4 -5 4 C-5 4.99 -5 5.98 -5 7 C-6.32 6.67 -7.64 6.34 -9 6 C-6.65405099 2.48107648 -4.44674901 0 0 0 Z " fill="#E9B2AC" transform="translate(128,113)"/>
<path d="M0 0 C1.98 0 3.96 0 6 0 C5.67 0.99 5.34 1.98 5 3 C4.34 3 3.68 3 3 3 C2.67 3.66 2.34 4.32 2 5 C1.01 5 0.02 5 -1 5 C-0.67 3.35 -0.34 1.7 0 0 Z " fill="#DC8C84" transform="translate(282,331)"/>
<path d="M0 0 C2 2 2 2 2.1953125 4.1640625 C2.16050781 5.38222656 2.16050781 5.38222656 2.125 6.625 C2.10695312 7.44226563 2.08890625 8.25953125 2.0703125 9.1015625 C2.04710937 9.72804688 2.02390625 10.35453125 2 11 C1.01 10.67 0.02 10.34 -1 10 C-0.67 6.7 -0.34 3.4 0 0 Z " fill="#CD635C" transform="translate(140,281)"/>
<path d="M0 0 C0.99 0 1.98 0 3 0 C3 3.3 3 6.6 3 10 C3.66 10 4.32 10 5 10 C5 10.66 5 11.32 5 12 C4.01 12 3.02 12 2 12 C2 9.03 2 6.06 2 3 C1.34 3 0.68 3 0 3 C0 2.01 0 1.02 0 0 Z " fill="#E9A49E" transform="translate(85,262)"/>
<path d="M0 0 C2.64 0 5.28 0 8 0 C8 0.99 8 1.98 8 3 C5.36 2.67 2.72 2.34 0 2 C0 1.34 0 0.68 0 0 Z " fill="#EDC9C2" transform="translate(212,333)"/>
<path d="M0 0 C0 0.66 0 1.32 0 2 C-3.1964086 3.06546953 -5.65747276 3.07427838 -9 3 C-9.33 2.01 -9.66 1.02 -10 0 C-6.30581799 -1.231394 -3.7943739 -0.64432764 0 0 Z " fill="#D17067" transform="translate(173,122)"/>
<path d="M0 0 C0.33 0 0.66 0 1 0 C1.125 6.625 1.125 6.625 0 10 C-0.66 10 -1.32 10 -2 10 C-2 7.69 -2 5.38 -2 3 C-1.34 3 -0.68 3 0 3 C0 2.01 0 1.02 0 0 Z " fill="#FADDD6" transform="translate(331,238)"/>
<path d="M0 0 C1.90401138 1.90401138 2.93520439 3.33425686 3.19921875 6.046875 C3.1886578 8.03233273 3.09915043 10.0169914 3 12 C2.690625 11.360625 2.38125 10.72125 2.0625 10.0625 C1.1654837 8.06389179 1.1654837 8.06389179 0 7 C-0.04092937 4.66702567 -0.04241723 2.33294775 0 0 Z " fill="#FAE3DC" transform="translate(329,196)"/>
<path d="M0 0 C0.99 0 1.98 0 3 0 C3.66 2.31 4.32 4.62 5 7 C4.34 7 3.68 7 3 7 C3 6.34 3 5.68 3 5 C2.01 5 1.02 5 0 5 C0 3.35 0 1.7 0 0 Z " fill="#E7BAB4" transform="translate(310,141)"/>
<path d="M0 0 C0 0.66 0 1.32 0 2 C-0.99 2 -1.98 2 -3 2 C-3 2.66 -3 3.32 -3 4 C-4.32 4 -5.64 4 -7 4 C-7 3.01 -7 2.02 -7 1 C-4 0 -4 0 0 0 Z " fill="#E4A9A4" transform="translate(282,336)"/>
<path d="M0 0 C1.32 0 2.64 0 4 0 C4.33 1.65 4.66 3.3 5 5 C4.01 5 3.02 5 2 5 C2 4.34 2 3.68 2 3 C1.34 3 0.68 3 0 3 C0 2.01 0 1.02 0 0 Z " fill="#D37D7A" transform="translate(149,305)"/>
<path d="M0 0 C0.66 0 1.32 0 2 0 C2.33 2.31 2.66 4.62 3 7 C1.35 6.67 -0.3 6.34 -2 6 C-2 5.34 -2 4.68 -2 4 C-1.34 4 -0.68 4 0 4 C0 2.68 0 1.36 0 0 Z " fill="#C5463D" transform="translate(146,300)"/>
<path d="M0 0 C0.99 0 1.98 0 3 0 C4.76462683 3.08809695 5 4.23312136 5 8 C4.34 8 3.68 8 3 8 C3 6.35 3 4.7 3 3 C2.01 3 1.02 3 0 3 C0 2.01 0 1.02 0 0 Z " fill="#BF524B" transform="translate(92,283)"/>
<path d="M0 0 C0.33 0.66 0.66 1.32 1 2 C1.66 2 2.32 2 3 2 C3 4.31 3 6.62 3 9 C2.67 8.34 2.34 7.68 2 7 C1.34 7 0.68 7 0 7 C0 4.69 0 2.38 0 0 Z " fill="#F8D0C9" transform="translate(137,267)"/>
<path d="M0 0 C0.99 0.495 0.99 0.495 2 1 C2 2.32 2 3.64 2 5 C2.99 5 3.98 5 5 5 C5 5.99 5 6.98 5 8 C3.68 8 2.36 8 1 8 C0.67 5.36 0.34 2.72 0 0 Z " fill="#EEBBB5" transform="translate(315,150)"/>
<path d="M0 0 C0 0.66 0 1.32 0 2 C-0.66 2 -1.32 2 -2 2 C-2 2.99 -2 3.98 -2 5 C-3.65 5 -5.3 5 -7 5 C-6 2 -6 2 -4.0625 0.8125 C-2 0 -2 0 0 0 Z " fill="#E8ABA3" transform="translate(135,108)"/>
<path d="M0 0 C1.98 0.66 3.96 1.32 6 2 C6 2.66 6 3.32 6 4 C4.02 4 2.04 4 0 4 C0 2.68 0 1.36 0 0 Z " fill="#DCA2A0" transform="translate(160,317)"/>
<path d="M0 0 C0.99 0 1.98 0 3 0 C3 1.65 3 3.3 3 5 C2.34 5 1.68 5 1 5 C0.67 5.66 0.34 6.32 0 7 C0 4.69 0 2.38 0 0 Z " fill="#FADBD7" transform="translate(137,174)"/>
<path d="" fill="#FFFFFF" transform="translate(0,0)"/>
</svg>
